<svg width="152" height="169" viewBox="0 0 152 169" fill="none" xmlns="http://www.w3.org/2000/svg">
<path d="M0 0H139.016C146.041 0 151.737 5.69513 151.737 12.7204V169H12.72C5.69496 169 0 163.305 0 156.28V0Z" fill="white" fill-opacity="0.8"/>
<path d="M40.1268 15.1646H47.3011V15.9533H40.1268V15.1646ZM43.0652 11.6029H44.0574V13.2693H43.0652V11.6029ZM38.206 22.3135C38.6894 22.2372 39.2491 22.1481 39.8851 22.0463C40.5296 21.9446 41.2122 21.8386 41.9331 21.7283C42.6624 21.6096 43.3874 21.4909 44.1083 21.3722L44.1719 22.2499C43.485 22.3686 42.7981 22.4873 42.1112 22.606C41.4243 22.7248 40.767 22.835 40.1395 22.9368C39.5119 23.047 38.9438 23.1445 38.435 23.2293L38.206 22.3135ZM43.4977 17.8486C43.9302 19.1206 44.6425 20.1468 45.6347 20.9269C46.6269 21.6987 47.9117 22.2202 49.489 22.4916C49.4212 22.5509 49.3448 22.6315 49.26 22.7333C49.1837 22.8435 49.1116 22.9495 49.0438 23.0513C48.9844 23.1615 48.9293 23.259 48.8784 23.3438C47.7845 23.1233 46.8304 22.7841 46.0163 22.3262C45.2022 21.8683 44.5153 21.2874 43.9556 20.5835C43.4044 19.8712 42.9592 19.0358 42.62 18.0776L43.4977 17.8486ZM48.0516 18.2175L48.8021 18.8026C48.4629 19.0655 48.0855 19.3369 47.67 19.6167C47.2629 19.8966 46.8474 20.1595 46.4234 20.4054C46.0078 20.6513 45.6178 20.8633 45.2531 21.0414L44.6171 20.4945C44.9817 20.3164 45.3718 20.0959 45.7874 19.833C46.2114 19.5701 46.6227 19.2987 47.0212 19.0189C47.4198 18.7306 47.7633 18.4634 48.0516 18.2175ZM40.0886 12.8495H47.8735V18.332H40.0886V17.467H46.9068V13.689H40.0886V12.8495ZM39.5925 12.8495H40.5593V22.3262L39.5925 22.4152V12.8495ZM55.6584 12.2771H61.2554V13.1675H55.6584V12.2771ZM55.2259 16.7546H62.2222V17.6578H55.2259V16.7546ZM58.2279 15.0628H59.182V22.1227C59.182 22.411 59.1438 22.6315 59.0675 22.7841C58.9912 22.9368 58.8512 23.0555 58.6477 23.1403C58.4442 23.2081 58.1728 23.2505 57.8336 23.2675C57.4944 23.2929 57.0704 23.3057 56.5616 23.3057C56.5361 23.1785 56.4852 23.0216 56.4089 22.835C56.3411 22.6569 56.2732 22.5 56.2054 22.3644C56.6124 22.3728 56.9771 22.3771 57.2994 22.3771C57.6216 22.3856 57.8378 22.3856 57.9481 22.3771C58.0583 22.3686 58.1304 22.3474 58.1643 22.3135C58.2067 22.2796 58.2279 22.216 58.2279 22.1227V15.0628ZM60.912 12.2771H61.1409L61.3317 12.2262L61.9677 12.6841C61.7133 13.0488 61.4208 13.4219 61.09 13.8035C60.7593 14.1766 60.4116 14.5328 60.047 14.872C59.6908 15.2112 59.3389 15.5123 58.9912 15.7752C58.9233 15.6819 58.83 15.5801 58.7113 15.4699C58.6011 15.3512 58.5078 15.2621 58.4315 15.2028C58.7368 14.9738 59.0463 14.7024 59.3601 14.3886C59.6738 14.0664 59.9664 13.7399 60.2378 13.4092C60.5176 13.0784 60.7423 12.7732 60.912 12.4933V12.2771ZM50.5194 14.2487H54.7171V15.1519H50.5194V14.2487ZM52.4401 11.6283L53.356 11.7301C53.2288 12.3661 53.0889 13.0445 52.9362 13.7653C52.7836 14.4862 52.6225 15.2112 52.4529 15.9405C52.2833 16.6698 52.1179 17.3695 51.9568 18.0394C51.7956 18.7094 51.6388 19.3072 51.4861 19.833L50.6974 19.4005C50.8331 18.9171 50.9773 18.3574 51.1299 17.7214C51.2911 17.0769 51.4522 16.4027 51.6133 15.6989C51.7744 14.9865 51.9271 14.2826 52.0713 13.5873C52.2154 12.8834 52.3384 12.2304 52.4401 11.6283ZM51.1554 19.0062L51.6896 18.332C52.1645 18.5949 52.6522 18.9002 53.1525 19.2479C53.6528 19.5871 54.115 19.9348 54.539 20.2909C54.9715 20.6471 55.315 20.9821 55.5694 21.2958L54.9842 22.0718C54.7383 21.758 54.4033 21.4146 53.9793 21.0414C53.5638 20.6683 53.1101 20.3036 52.6182 19.9475C52.1264 19.5913 51.6388 19.2775 51.1554 19.0062ZM54.3991 14.2487H54.5517L54.7171 14.2233L55.2895 14.3378C55.1793 15.9745 54.9503 17.3822 54.6026 18.5609C54.2634 19.7312 53.8097 20.7065 53.2415 21.4866C52.6734 22.2668 51.9992 22.8901 51.219 23.3566C51.1596 23.2378 51.0706 23.1021 50.9519 22.9495C50.8416 22.8053 50.7356 22.6866 50.6338 22.5933C51.3377 22.2117 51.9525 21.6605 52.4783 20.9397C53.0041 20.2104 53.4281 19.3072 53.7504 18.2302C54.0726 17.1447 54.2888 15.8854 54.3991 14.4523V14.2487Z" fill="#1F2633"/>
<path d="M38.6258 34.9741H48.7131V35.7882H38.6258V34.9741ZM37.9134 38.2814H49.3364V39.0828H37.9134V38.2814ZM41.8567 35.3049H42.7472V38.7267H41.8567V35.3049ZM44.3627 35.3049H45.2785V38.7267H44.3627V35.3049ZM39.2618 36.2589L40.0377 35.9536C40.2752 36.2419 40.4914 36.5684 40.6865 36.9331C40.89 37.2977 41.0299 37.6242 41.1062 37.9125L40.2667 38.2433C40.1989 37.9634 40.0674 37.6369 39.8724 37.2638C39.6858 36.8907 39.4823 36.5557 39.2618 36.2589ZM40.2031 33.7402L41.0299 33.4222C41.2334 33.6258 41.4243 33.859 41.6023 34.1219C41.7889 34.3763 41.9204 34.6095 41.9967 34.8215L41.119 35.2031C41.0511 34.9996 40.9282 34.7579 40.7501 34.478C40.572 34.1982 40.3897 33.9523 40.2031 33.7402ZM47.1357 35.89L48.0007 36.1826C47.8057 36.5387 47.5937 36.9034 47.3647 37.2765C47.1357 37.6412 46.9237 37.9507 46.7287 38.2051L45.9909 37.938C46.1181 37.7514 46.2538 37.5394 46.3979 37.302C46.5421 37.0645 46.6778 36.8228 46.805 36.5769C46.9407 36.3225 47.0509 36.0935 47.1357 35.89ZM46.0418 33.4095L46.9704 33.7148C46.8092 33.9777 46.6354 34.2321 46.4488 34.478C46.2707 34.7155 46.1054 34.9232 45.9527 35.1013L45.1132 34.8215C45.2658 34.6264 45.4312 34.3932 45.6093 34.1219C45.7874 33.8505 45.9315 33.613 46.0418 33.4095ZM39.7833 39.8715H47.4919V45.0741H46.4997V40.6347H40.7501V45.125H39.7833V39.8715ZM40.3176 41.8813H46.9576V42.6318H40.3176V41.8813ZM40.3303 43.9166H46.9704V44.6798H40.3303V43.9166ZM53.267 38.4595V42.9626H52.3511V39.35H50.5066V38.4595H53.267ZM53.267 42.5682C53.5723 43.0431 53.9963 43.3951 54.539 43.624C55.0818 43.8445 55.7263 43.9717 56.4725 44.0056C56.8287 44.0141 57.257 44.0226 57.7573 44.0311C58.2661 44.0311 58.8004 44.0311 59.3601 44.0311C59.9198 44.0226 60.4583 44.0099 60.9756 43.9929C61.5013 43.976 61.9593 43.9548 62.3494 43.9293C62.3154 43.9972 62.2773 44.0862 62.2349 44.1964C62.1925 44.3067 62.1501 44.4212 62.1077 44.5399C62.0738 44.6586 62.0483 44.7689 62.0314 44.8706C61.6752 44.8791 61.2554 44.8876 60.772 44.8961C60.2971 44.913 59.7926 44.9215 59.2583 44.9215C58.7325 44.93 58.2237 44.93 57.7318 44.9215C57.2485 44.913 56.8287 44.9045 56.4725 44.8961C55.6499 44.8621 54.9418 44.7265 54.3482 44.489C53.7546 44.2516 53.2585 43.8784 52.8599 43.3696C52.5377 43.6495 52.2069 43.9251 51.8677 44.1964C51.5285 44.4763 51.1766 44.7561 50.8119 45.036L50.3413 44.0947C50.655 43.8911 50.9985 43.6579 51.3716 43.3951C51.7448 43.1237 52.1009 42.8481 52.4401 42.5682H53.267ZM50.7102 34.3127L51.3844 33.7275C51.6557 33.9141 51.9313 34.1303 52.2112 34.3763C52.4995 34.6137 52.7624 34.8554 52.9998 35.1013C53.2373 35.3388 53.4239 35.5677 53.5595 35.7882L52.8345 36.4497C52.7073 36.2292 52.5249 35.996 52.2875 35.7501C52.0585 35.4957 51.8084 35.2455 51.537 34.9996C51.2656 34.7452 50.99 34.5162 50.7102 34.3127ZM55.8111 35.572L56.4089 35.025C56.816 35.1692 57.2442 35.3388 57.6937 35.5338C58.1516 35.7204 58.5884 35.9112 59.0039 36.1062C59.4279 36.3013 59.7798 36.4836 60.0597 36.6532L59.4237 37.2638C59.1608 37.0942 58.8216 36.9076 58.406 36.7041C57.999 36.5006 57.5665 36.3013 57.1085 36.1062C56.6506 35.9027 56.2181 35.7246 55.8111 35.572ZM54.5899 36.6278H61.1664V37.3656H55.4931V43.217H54.5899V36.6278ZM60.7211 36.6278H61.637V42.2629C61.637 42.5004 61.6073 42.6827 61.548 42.8099C61.4886 42.9286 61.3741 43.0262 61.2045 43.1025C61.0349 43.1703 60.8102 43.2127 60.5303 43.2297C60.259 43.2382 59.907 43.2424 59.4745 43.2424C59.4576 43.1237 59.4237 42.9922 59.3728 42.8481C59.3219 42.6954 59.2668 42.5682 59.2074 42.4665C59.5127 42.4749 59.7841 42.4792 60.0215 42.4792C60.2675 42.4792 60.4286 42.4792 60.5049 42.4792C60.5897 42.4707 60.6448 42.4495 60.6703 42.4156C60.7042 42.3817 60.7211 42.3308 60.7211 42.2629V36.6278ZM54.6026 33.9565H60.9501V34.7197H54.6026V33.9565ZM55.086 38.485H61.0773V39.1973H55.086V38.485ZM55.086 40.3549H61.0773V41.1054H55.086V40.3549ZM57.6428 36.9331H58.5078V43.1661H57.6428V36.9331ZM60.6321 33.9565H60.8484L61.0392 33.9056L61.637 34.3763C61.3487 34.6392 61.0222 34.902 60.6575 35.1649C60.2929 35.4193 59.9113 35.6568 59.5127 35.8773C59.1141 36.0978 58.7198 36.2886 58.3297 36.4497C58.2703 36.3649 58.1898 36.2674 58.088 36.1571C57.9863 36.0469 57.8972 35.9578 57.8209 35.89C58.1771 35.7458 58.5332 35.5762 58.8894 35.3812C59.2456 35.1861 59.5763 34.9826 59.8816 34.7706C60.1869 34.5501 60.4371 34.3381 60.6321 34.1346V33.9565Z" fill="#1F2633"/>
<path d="M44.1973 57.7542H49.4763V58.6446H44.1973V57.7542ZM37.7862 57.0419H44.3245V57.856H37.7862V57.0419ZM38.2569 59.8149H43.8666V60.629H38.2569V59.8149ZM38.5876 61.9265H43.5994V62.7279H38.5876V61.9265ZM47.1993 54.4087H48.1152V64.8522C48.1152 65.149 48.0728 65.3738 47.988 65.5264C47.9117 65.679 47.7802 65.7935 47.5937 65.8698C47.4071 65.9377 47.1527 65.9843 46.8304 66.0098C46.5082 66.0352 46.0842 66.0479 45.5584 66.0479C45.533 65.9207 45.4863 65.7681 45.4185 65.59C45.3506 65.4204 45.2828 65.272 45.2149 65.1448C45.605 65.1533 45.957 65.1575 46.2707 65.1575C46.5845 65.1575 46.788 65.1575 46.8813 65.1575C47 65.149 47.0806 65.1236 47.123 65.0812C47.1739 65.0388 47.1993 64.9625 47.1993 64.8522V54.4087ZM44.5916 59.9421L45.4057 59.6623C45.5838 59.9676 45.7534 60.2941 45.9146 60.6417C46.0757 60.9894 46.2156 61.3287 46.3343 61.6594C46.4531 61.9901 46.5336 62.2869 46.576 62.5498L45.711 62.8678C45.6686 62.6049 45.5923 62.3081 45.4821 61.9774C45.3718 61.6382 45.2404 61.2905 45.0877 60.9343C44.9351 60.5781 44.7697 60.2474 44.5916 59.9421ZM37.9261 55.0066L38.613 54.7013C38.8166 54.9981 39.0031 55.3246 39.1727 55.6808C39.3508 56.037 39.4738 56.3465 39.5416 56.6094L38.8038 56.9528C38.7445 56.6984 38.63 56.3846 38.4604 56.0115C38.2993 55.6384 38.1212 55.3034 37.9261 55.0066ZM38.842 58.1231L39.6052 57.8687C39.7664 58.1316 39.9148 58.4242 40.0504 58.7464C40.1861 59.0602 40.2752 59.3315 40.3176 59.5605L39.5035 59.8531C39.4695 59.6241 39.389 59.3485 39.2618 59.0263C39.1431 58.6955 39.0031 58.3945 38.842 58.1231ZM39.7833 54.396H40.572V57.4362H39.7833V54.396ZM40.6101 60.0821H41.5006V64.6741H40.6101V60.0821ZM41.5387 54.396H42.3274V57.4362H41.5387V54.396ZM37.8371 64.5724C38.3629 64.513 38.9735 64.4409 39.6688 64.3561C40.3642 64.2713 41.102 64.178 41.8822 64.0763C42.6624 63.966 43.4383 63.8643 44.21 63.771L44.2355 64.6105C43.4892 64.7123 42.7387 64.8183 41.984 64.9285C41.2292 65.0303 40.5084 65.1278 39.8215 65.2211C39.1346 65.3144 38.5155 65.3992 37.9643 65.4755L37.8371 64.5724ZM43.5486 54.6377L44.3881 54.9684C44.2015 55.3076 44.0023 55.6638 43.7903 56.037C43.5782 56.4016 43.379 56.7154 43.1924 56.9783L42.5437 56.6857C42.6539 56.4991 42.7726 56.2871 42.8998 56.0497C43.027 55.8037 43.1458 55.5578 43.256 55.3119C43.3747 55.0575 43.4722 54.8328 43.5486 54.6377ZM42.4546 57.8433L43.345 58.0977C43.2094 58.403 43.0652 58.7125 42.9125 59.0263C42.7599 59.34 42.62 59.6114 42.4928 59.8404L41.7423 59.6241C41.8271 59.463 41.9119 59.2807 41.9967 59.0771C42.09 58.8651 42.1748 58.6531 42.2511 58.4411C42.3359 58.2206 42.4037 58.0213 42.4546 57.8433ZM51.855 55.897H56.7142V56.7366H51.855V55.897ZM50.4558 60.5018H56.9305V61.3159H50.4558V60.5018ZM51.9695 57.8433H55.6711V58.6574H51.9695V57.8433ZM51.4861 63.2876H56.8414V64.089H51.4861V63.2876ZM52.0458 54.3324L52.9617 54.5105C52.7582 55.3416 52.491 56.1387 52.1603 56.9019C51.838 57.6652 51.4734 58.3097 51.0663 58.8354C51.0155 58.7846 50.9391 58.7252 50.8374 58.6574C50.7441 58.5895 50.6466 58.5259 50.5448 58.4666C50.4515 58.3987 50.3667 58.3436 50.2904 58.3012C50.6974 57.8178 51.0494 57.2242 51.3462 56.5203C51.643 55.8165 51.8762 55.0872 52.0458 54.3324ZM55.3531 57.8433H56.18C56.18 57.8433 56.18 57.8729 56.18 57.9323C56.18 57.9917 56.18 58.0553 56.18 58.1231C56.18 58.1909 56.18 58.2461 56.18 58.2885C56.1376 59.569 56.0952 60.6502 56.0527 61.5322C56.0188 62.4056 55.9764 63.118 55.9255 63.6692C55.8747 64.2204 55.8153 64.6487 55.7475 64.954C55.6881 65.2508 55.6118 65.4628 55.5185 65.59C55.4082 65.7342 55.2895 65.8359 55.1623 65.8953C55.0436 65.9546 54.8994 65.9971 54.7298 66.0225C54.5687 66.0395 54.3609 66.0437 54.1065 66.0352C53.8606 66.0352 53.6062 66.0267 53.3433 66.0098C53.3348 65.8995 53.3094 65.7681 53.267 65.6154C53.2331 65.4628 53.1822 65.3313 53.1143 65.2211C53.3857 65.2465 53.6359 65.2635 53.8648 65.272C54.0938 65.2805 54.2634 65.2847 54.3737 65.2847C54.4669 65.2847 54.5433 65.2677 54.6026 65.2338C54.662 65.2084 54.7213 65.1575 54.7807 65.0812C54.8485 64.9879 54.9122 64.8013 54.9715 64.5215C55.0309 64.2416 55.0818 63.8303 55.1242 63.2876C55.175 62.7449 55.2174 62.0452 55.2514 61.1887C55.2853 60.3322 55.3192 59.2849 55.3531 58.0468V57.8433ZM51.5879 57.8433H52.402C52.3681 58.386 52.3257 58.9584 52.2748 59.5605C52.2239 60.1626 52.1688 60.769 52.1094 61.3795C52.0501 61.9901 51.9907 62.571 51.9313 63.1222C51.8804 63.665 51.8253 64.1483 51.766 64.5724L50.9391 64.5088C51.007 64.0847 51.0706 63.6014 51.1299 63.0586C51.1978 62.5074 51.2614 61.9308 51.3207 61.3287C51.3801 60.7181 51.431 60.116 51.4734 59.5224C51.5243 58.9287 51.5624 58.369 51.5879 57.8433ZM53.4451 58.2376H54.221C54.1956 58.6701 54.1701 59.128 54.1447 59.6114C54.1192 60.0863 54.0853 60.5697 54.0429 61.0615C54.009 61.5449 53.9751 62.0071 53.9412 62.4481C53.9072 62.8805 53.8691 63.2664 53.8267 63.6056L53.0634 63.5293C53.1058 63.1986 53.144 62.8169 53.1779 62.3844C53.2203 61.9435 53.2585 61.4855 53.2924 61.0106C53.3263 60.5273 53.356 60.0481 53.3815 59.5732C53.4069 59.0899 53.4281 58.6446 53.4451 58.2376ZM57.8336 56.7747H62.2094V57.6524H57.8336V56.7747ZM58.088 54.3324L59.0166 54.4723C58.8894 55.2525 58.7283 56.02 58.5332 56.7747C58.3382 57.521 58.1135 58.2206 57.8591 58.8736C57.6131 59.5266 57.329 60.099 57.0068 60.5909C56.9559 60.5315 56.8838 60.4637 56.7905 60.3873C56.6973 60.3025 56.5997 60.222 56.498 60.1457C56.4047 60.0609 56.3241 59.9972 56.2563 59.9548C56.5616 59.4969 56.8287 58.9711 57.0577 58.3775C57.2951 57.7754 57.4986 57.1309 57.6682 56.444C57.8378 55.7486 57.9778 55.0448 58.088 54.3324ZM60.5558 57.2708L61.4844 57.3726C61.2893 58.7803 61.001 60.0312 60.6194 61.1251C60.2463 62.2191 59.7459 63.1731 59.1184 63.9872C58.4908 64.7929 57.6979 65.4798 56.7397 66.0479C56.6973 65.9801 56.6336 65.8953 56.5488 65.7935C56.4725 65.7002 56.392 65.607 56.3072 65.5137C56.2224 65.4204 56.146 65.3441 56.0782 65.2847C57.0195 64.7929 57.787 64.1738 58.3806 63.4275C58.9742 62.6813 59.4406 61.7993 59.7798 60.7817C60.1275 59.7556 60.3862 58.5853 60.5558 57.2708ZM58.2279 57.5761C58.4145 58.7379 58.6816 59.8234 59.0293 60.8326C59.377 61.8417 59.818 62.7279 60.3523 63.4911C60.895 64.2459 61.5522 64.848 62.3239 65.2974C62.2476 65.3483 62.167 65.4162 62.0822 65.501C61.9974 65.5942 61.9169 65.6875 61.8405 65.7808C61.7727 65.8826 61.7091 65.9759 61.6497 66.0607C60.8526 65.5518 60.1742 64.8904 59.6145 64.0763C59.0633 63.2537 58.6096 62.3039 58.2534 61.2269C57.8972 60.1499 57.6131 58.9796 57.4011 57.7161L58.2279 57.5761ZM71.33 54.8158L71.8261 54.2561C72.1483 54.3494 72.4833 54.4808 72.831 54.6504C73.1787 54.8116 73.4543 54.9727 73.6578 55.1338L73.149 55.7571C72.954 55.596 72.6826 55.4264 72.3349 55.2483C71.9957 55.0702 71.6607 54.926 71.33 54.8158ZM64.7662 55.6299H74.6627V56.4186H64.7662V55.6299ZM65.6694 57.2708H69.5618V57.9577H65.6694V57.2708ZM65.8729 58.81H66.6616V61.1378H65.8729V58.81ZM72.6275 57.0291L73.5179 57.2454C73.1617 58.297 72.6741 59.2425 72.0551 60.0821C71.436 60.9216 70.7364 61.6212 69.9562 62.1809C69.9138 62.1216 69.8502 62.0537 69.7654 61.9774C69.6806 61.8926 69.5958 61.8078 69.511 61.723C69.4262 61.6382 69.3456 61.5703 69.2693 61.5195C70.041 61.0276 70.7152 60.3958 71.2918 59.6241C71.8685 58.8524 72.3137 57.9874 72.6275 57.0291ZM69.6254 54.3324H70.5286C70.5625 55.3076 70.6855 56.2235 70.8975 57.08C71.1095 57.9365 71.3681 58.6913 71.6734 59.3443C71.9872 59.9972 72.3222 60.5061 72.6784 60.8707C73.0345 61.2354 73.3737 61.4177 73.696 61.4177C73.8656 61.4092 73.9843 61.282 74.0522 61.0361C74.12 60.7902 74.1709 60.3789 74.2048 59.8022C74.3066 59.887 74.4253 59.9718 74.561 60.0566C74.7051 60.1329 74.8366 60.1881 74.9553 60.222C74.9129 60.7562 74.8408 61.176 74.7391 61.4813C74.6373 61.7781 74.4974 61.9859 74.3193 62.1046C74.1497 62.2233 73.925 62.2827 73.6451 62.2827C73.2465 62.2827 72.8564 62.147 72.4748 61.8756C72.1017 61.6043 71.7498 61.2226 71.419 60.7308C71.0883 60.2305 70.7957 59.6453 70.5413 58.9754C70.2869 58.3054 70.0791 57.5761 69.918 56.7875C69.7569 55.9988 69.6594 55.1804 69.6254 54.3324ZM65.8729 58.81H69.3583V61.4813H65.8729V60.8071H68.5442V59.4842H65.8729V58.81ZM66.5089 62.6516H67.4503V64.636C67.4503 64.7971 67.4969 64.9031 67.5902 64.954C67.6919 64.9964 67.9124 65.0176 68.2516 65.0176C68.328 65.0176 68.4679 65.0176 68.6714 65.0176C68.8834 65.0176 69.1124 65.0176 69.3583 65.0176C69.6127 65.0176 69.8502 65.0176 70.0707 65.0176C70.2912 65.0176 70.4565 65.0176 70.5668 65.0176C70.7533 65.0176 70.8933 64.9879 70.9865 64.9285C71.0798 64.8692 71.1477 64.7462 71.1901 64.5596C71.2325 64.3646 71.2621 64.0678 71.2791 63.6692C71.3469 63.7201 71.4318 63.771 71.5335 63.8219C71.6353 63.8643 71.737 63.9024 71.8388 63.9363C71.949 63.9703 72.0508 63.9957 72.1441 64.0127C72.1017 64.513 72.0296 64.8989 71.9278 65.1702C71.8346 65.4416 71.6862 65.6282 71.4826 65.7299C71.2876 65.8317 71.012 65.8826 70.6558 65.8826C70.5964 65.8826 70.482 65.8826 70.3124 65.8826C70.1427 65.8826 69.9477 65.8826 69.7272 65.8826C69.5152 65.8826 69.299 65.8826 69.0785 65.8826C68.8665 65.8826 68.6757 65.8826 68.5061 65.8826C68.3449 65.8826 68.2347 65.8826 68.1753 65.8826C67.7343 65.8826 67.3909 65.8444 67.145 65.7681C66.9075 65.7002 66.7422 65.5773 66.6489 65.3992C66.5556 65.2211 66.5089 64.9667 66.5089 64.636V62.6516ZM67.4884 62.2445L68.099 61.7103C68.3704 61.8205 68.646 61.9604 68.9258 62.13C69.2057 62.2996 69.4643 62.4777 69.7018 62.6643C69.9477 62.8424 70.147 63.0162 70.2996 63.1858L69.6382 63.7964C69.5025 63.6268 69.3117 63.4487 69.0658 63.2622C68.8283 63.0756 68.5739 62.8933 68.3025 62.7152C68.0312 62.5371 67.7598 62.3802 67.4884 62.2445ZM71.877 63.0332L72.6656 62.6007C72.9709 62.8381 73.2677 63.1095 73.5561 63.4148C73.8529 63.7116 74.1242 64.0127 74.3702 64.318C74.6161 64.6232 74.8027 64.9073 74.9299 65.1702L74.0776 65.6409C73.9589 65.378 73.785 65.0939 73.5561 64.7886C73.3271 64.4748 73.0684 64.1695 72.7801 63.8727C72.4918 63.5674 72.1907 63.2876 71.877 63.0332ZM64.8934 62.7279L65.733 63.0332C65.5719 63.542 65.3514 64.0466 65.0715 64.5469C64.8002 65.0388 64.4398 65.4458 63.9903 65.7681L63.2016 65.2338C63.6256 64.9455 63.9776 64.5766 64.2574 64.1271C64.5373 63.6692 64.7493 63.2028 64.8934 62.7279ZM64.3083 55.6299H65.1987V57.538C65.1987 57.9111 65.1818 58.3139 65.1479 58.7464C65.1139 59.1704 65.0461 59.6072 64.9443 60.0566C64.8426 60.5061 64.6984 60.9428 64.5118 61.3668C64.3337 61.7908 64.1005 62.1809 63.8122 62.5371C63.7698 62.4777 63.702 62.4099 63.6087 62.3336C63.5239 62.2488 63.4348 62.1724 63.3416 62.1046C63.2483 62.0283 63.1677 61.9774 63.0999 61.952C63.4645 61.511 63.7316 61.0318 63.9013 60.5145C64.0709 59.9888 64.1811 59.4672 64.232 58.9499C64.2829 58.4326 64.3083 57.962 64.3083 57.538V55.6299ZM82.2441 56.0115H87.4977V56.8765H82.2441V56.0115ZM82.6003 54.307L83.4653 54.5105C83.2448 55.2992 82.948 56.0539 82.5748 56.7747C82.2102 57.4956 81.8116 58.1061 81.3791 58.6065C81.3282 58.5471 81.2562 58.4878 81.1629 58.4284C81.0696 58.3606 80.9721 58.2927 80.8703 58.2249C80.777 58.157 80.6922 58.1061 80.6159 58.0722C81.0484 57.6143 81.4342 57.0546 81.7735 56.3931C82.1212 55.7232 82.3968 55.0278 82.6003 54.307ZM82.6512 58.5683H87.2941V59.4079H82.6512V58.5683ZM81.2519 61.2905H87.5104V62.1682H81.2519V61.2905ZM82.7911 57.1691L83.6688 57.3599C83.4907 58.0298 83.2618 58.6743 82.9819 59.2934C82.7105 59.9124 82.4137 60.434 82.0915 60.858C82.0321 60.8156 81.9558 60.7647 81.8625 60.7054C81.7692 60.6375 81.6759 60.5739 81.5827 60.5145C81.4894 60.4552 81.4046 60.4085 81.3282 60.3746C81.6675 59.9676 81.96 59.4842 82.206 58.9245C82.4519 58.3563 82.6469 57.7712 82.7911 57.1691ZM75.9729 56.4567H81.1883V57.3599H75.9729V56.4567ZM77.8047 59.1535H80.1707V60.0184H77.8047V59.1535ZM78.2881 54.3579H79.2039V56.7239H78.2881V54.3579ZM77.4104 56.9783H78.3135C78.2965 57.8433 78.2626 58.7082 78.2117 59.5732C78.1693 60.4382 78.0888 61.2651 77.9701 62.0537C77.8513 62.8424 77.6732 63.5759 77.4358 64.2544C77.1983 64.9328 76.8803 65.5306 76.4818 66.0479C76.4139 65.9377 76.3079 65.819 76.1638 65.6918C76.0281 65.573 75.8966 65.4798 75.7694 65.4119C76.1426 64.954 76.4351 64.4112 76.6471 63.7837C76.8591 63.1477 77.016 62.4565 77.1178 61.7103C77.228 60.964 77.3001 60.1923 77.334 59.3951C77.3764 58.5895 77.4019 57.7839 77.4104 56.9783ZM79.9036 59.1535H80.8067C80.8067 59.1535 80.8067 59.1789 80.8067 59.2298C80.8067 59.2807 80.8067 59.3443 80.8067 59.4206C80.8067 59.4884 80.8025 59.5436 80.794 59.586C80.7516 60.6205 80.7092 61.4983 80.6668 62.2191C80.6244 62.9399 80.5777 63.5293 80.5269 63.9872C80.476 64.4452 80.4166 64.8013 80.3488 65.0557C80.2894 65.3101 80.2131 65.4925 80.1198 65.6027C80.0096 65.7469 79.8951 65.8444 79.7764 65.8953C79.6661 65.9546 79.5219 65.9971 79.3439 66.0225C79.2082 66.0395 79.0258 66.0479 78.7969 66.0479C78.5679 66.0479 78.3262 66.0395 78.0718 66.0225C78.0633 65.8953 78.0379 65.7469 77.9955 65.5773C77.9531 65.4077 77.898 65.2635 77.8301 65.1448C78.0676 65.1617 78.2881 65.1702 78.4916 65.1702C78.6951 65.1787 78.8435 65.1829 78.9368 65.1829C79.0301 65.1914 79.1064 65.1829 79.1658 65.1575C79.2251 65.1405 79.2803 65.0939 79.3311 65.0176C79.4244 64.9073 79.505 64.6614 79.5728 64.2798C79.6407 63.8897 79.7 63.3003 79.7509 62.5117C79.8103 61.7145 79.8612 60.6545 79.9036 59.3315V59.1535ZM84.9663 61.8375C85.1953 62.6261 85.5514 63.33 86.0348 63.9491C86.5182 64.5596 87.1118 65.0049 87.8157 65.2847C87.7139 65.3695 87.5994 65.484 87.4722 65.6282C87.3535 65.7808 87.2602 65.9122 87.1924 66.0225C86.4631 65.6748 85.8482 65.149 85.3479 64.4452C84.856 63.7413 84.4872 62.9399 84.2412 62.041L84.9663 61.8375ZM83.9741 59.0263H84.8772V60.858C84.8772 61.2566 84.8391 61.6806 84.7628 62.13C84.6949 62.571 84.5465 63.0205 84.3175 63.4784C84.0886 63.9363 83.7494 64.3858 83.2999 64.8268C82.8505 65.2677 82.2484 65.6706 81.4936 66.0352C81.4258 65.9419 81.3325 65.8274 81.2138 65.6918C81.095 65.5646 80.9848 65.4628 80.883 65.3865C81.6039 65.0557 82.172 64.6996 82.5876 64.318C83.0031 63.9279 83.3084 63.5335 83.5034 63.135C83.707 62.7279 83.8342 62.3293 83.8851 61.9392C83.9444 61.5407 83.9741 61.176 83.9741 60.8453V59.0263ZM94.8755 56.8129H100.116V57.6906H94.8755V56.8129ZM95.0536 59.4079H99.8874V60.2983H95.0536V59.4079ZM94.5829 62.1428H100.396V63.0459H94.5829V62.1428ZM95.0409 54.6886L95.8041 54.4215C96.0161 54.7352 96.2069 55.0872 96.3765 55.4773C96.5546 55.8589 96.6733 56.1981 96.7327 56.4949L95.9059 56.8002C95.855 56.5034 95.7447 56.1599 95.5751 55.7698C95.414 55.3713 95.2359 55.0108 95.0409 54.6886ZM98.9588 54.3197L99.8746 54.5487C99.705 54.9303 99.5269 55.3246 99.3404 55.7317C99.1623 56.1302 98.9884 56.4694 98.8188 56.7493L98.0302 56.5331C98.1404 56.3295 98.2507 56.1006 98.3609 55.8461C98.4796 55.5833 98.5899 55.3204 98.6916 55.0575C98.8019 54.7861 98.8909 54.5402 98.9588 54.3197ZM96.9871 57.22H97.903V66.0479H96.9871V57.22ZM88.6934 57.0673H94.7483V57.8941H88.6934V57.0673ZM89.3421 54.9684H93.9851V59.993H89.2785V59.1662H93.0946V55.7953H89.3421V54.9684ZM90.0163 61.3032H90.894V66.0352H90.0163V61.3032ZM90.3852 61.3032H94.1632V65.3483H90.3852V64.5088H93.2346V62.1428H90.3852V61.3032ZM90.9194 55.2737L91.8353 55.3119C91.7505 56.5585 91.6106 57.7033 91.4155 58.7464C91.2205 59.7895 90.9406 60.7308 90.576 61.5703C90.2198 62.4099 89.7364 63.1392 89.1259 63.7583C89.0919 63.6989 89.0368 63.6226 88.9605 63.5293C88.8842 63.4275 88.8036 63.33 88.7188 63.2367C88.634 63.1434 88.5577 63.0714 88.4898 63.0205C89.058 62.4777 89.5032 61.8205 89.8255 61.0488C90.1562 60.2771 90.4022 59.4036 90.5633 58.4284C90.7329 57.4532 90.8516 56.4016 90.9194 55.2737ZM101.732 55.2228H112.697V56.2023H101.732V55.2228ZM107.965 58.9372L108.677 58.3266C109.05 58.5726 109.445 58.8397 109.86 59.128C110.276 59.4079 110.683 59.7004 111.081 60.0057C111.48 60.311 111.849 60.6078 112.188 60.8962C112.536 61.1845 112.828 61.4516 113.066 61.6975L112.29 62.4353C112.061 62.1894 111.777 61.918 111.438 61.6212C111.107 61.3159 110.746 61.0064 110.356 60.6926C109.966 60.3789 109.563 60.0736 109.148 59.7768C108.741 59.4715 108.346 59.1916 107.965 58.9372ZM107.736 55.5663L108.766 55.9352C108.291 56.8087 107.715 57.6609 107.036 58.492C106.358 59.3231 105.599 60.0905 104.759 60.7944C103.928 61.4983 103.029 62.1046 102.063 62.6134C102.02 62.5286 101.957 62.4353 101.872 62.3336C101.795 62.2318 101.715 62.13 101.63 62.0283C101.554 61.9265 101.482 61.8417 101.414 61.7739C102.109 61.4262 102.771 61.0234 103.398 60.5654C104.034 60.099 104.624 59.5944 105.166 59.0517C105.709 58.5005 106.197 57.9323 106.629 57.3472C107.07 56.7535 107.439 56.1599 107.736 55.5663ZM106.693 58.0977L107.723 57.08V57.0927V66.0098H106.693V58.0977ZM121.957 54.4215H122.835V64.5342H121.957V54.4215ZM119.222 57.1564H125.901V57.8941H119.222V57.1564ZM119.502 62.3336H125.646V63.0714H119.502V62.3336ZM119.884 60.5909H125.29V61.3414H119.884V60.5909ZM117.009 55.3882H118.854V56.1769H117.009V55.3882ZM117.48 58.9499H119.108V59.7004H117.48V58.9499ZM118.637 55.3882H118.764L118.904 55.3373L119.515 55.5154C119.345 55.9564 119.142 56.4525 118.904 57.0037C118.667 57.5549 118.421 58.1189 118.167 58.6955C117.921 59.2637 117.679 59.798 117.442 60.2983L116.64 60.0948C116.818 59.7301 117.001 59.3358 117.187 58.9118C117.382 58.4878 117.569 58.0637 117.747 57.6397C117.933 57.2157 118.103 56.8214 118.256 56.4567C118.408 56.0836 118.536 55.7656 118.637 55.5027V55.3882ZM118.866 58.9499H119.019L119.172 58.9245L119.693 59.0263C119.54 60.7902 119.235 62.236 118.777 63.3639C118.319 64.4918 117.696 65.3653 116.907 65.9843C116.865 65.9165 116.81 65.8402 116.742 65.7554C116.683 65.6706 116.619 65.5858 116.551 65.501C116.483 65.4162 116.415 65.3483 116.348 65.2974C116.806 64.9582 117.208 64.5003 117.556 63.9236C117.904 63.3385 118.188 62.6431 118.408 61.8375C118.629 61.0318 118.781 60.1245 118.866 59.1153V58.9499ZM117.543 60.7308C117.713 61.5873 117.938 62.2912 118.217 62.8424C118.506 63.3936 118.849 63.8219 119.248 64.1271C119.655 64.424 120.117 64.636 120.634 64.7632C121.16 64.8819 121.745 64.9413 122.39 64.9413C122.475 64.9413 122.631 64.9413 122.86 64.9413C123.089 64.9413 123.352 64.9413 123.649 64.9413C123.954 64.9413 124.26 64.9413 124.565 64.9413C124.879 64.9328 125.159 64.9285 125.405 64.9285C125.65 64.9285 125.824 64.9243 125.926 64.9158C125.884 64.9921 125.837 65.0812 125.786 65.1829C125.744 65.2932 125.706 65.4034 125.672 65.5137C125.638 65.6239 125.612 65.7172 125.595 65.7935H124.972H122.364C121.601 65.7935 120.918 65.7214 120.316 65.5773C119.723 65.4416 119.201 65.1999 118.752 64.8522C118.302 64.496 117.916 64.0042 117.594 63.3766C117.272 62.7491 117.009 61.9435 116.806 60.9598L117.543 60.7308ZM120.087 55.4391H125.125V59.6241H120.087V58.8863H124.298V56.1769H120.087V55.4391ZM116.335 54.396L117.2 54.6377C116.988 55.3416 116.729 56.037 116.424 56.7239C116.127 57.4108 115.801 58.0595 115.444 58.6701C115.088 59.2722 114.711 59.8107 114.312 60.2856C114.287 60.2093 114.244 60.1117 114.185 59.993C114.126 59.8743 114.066 59.7513 114.007 59.6241C113.948 59.4969 113.893 59.3951 113.842 59.3188C114.367 58.7167 114.847 57.9832 115.279 57.1182C115.712 56.2447 116.064 55.3373 116.335 54.396ZM115.444 57.6143L116.284 56.7747L116.297 56.8002V66.0098H115.444V57.6143ZM129.03 59.0008H138.507V59.7259H129.03V59.0008ZM129.92 57.3599H137.247V61.4177H129.819V60.7181H136.344V58.0595H129.92V57.3599ZM132.91 56.444H133.825V64.9413C133.825 65.2381 133.783 65.4543 133.698 65.59C133.622 65.7342 133.482 65.8402 133.278 65.908C133.075 65.9759 132.799 66.014 132.452 66.0225C132.104 66.0395 131.667 66.0479 131.141 66.0479C131.116 65.9377 131.074 65.7978 131.014 65.6282C130.963 65.467 130.9 65.3271 130.823 65.2084C131.095 65.2169 131.349 65.2211 131.587 65.2211C131.833 65.2296 132.045 65.2296 132.223 65.2211C132.409 65.2211 132.541 65.2211 132.617 65.2211C132.727 65.2211 132.804 65.1999 132.846 65.1575C132.888 65.1151 132.91 65.043 132.91 64.9413V56.444ZM129.348 62.0919L129.895 61.5831C130.115 61.7018 130.344 61.8417 130.582 62.0028C130.819 62.1555 131.044 62.3081 131.256 62.4608C131.476 62.6134 131.655 62.7576 131.79 62.8933L131.205 63.4657C131.078 63.33 130.908 63.1816 130.696 63.0205C130.484 62.8593 130.26 62.6982 130.022 62.5371C129.785 62.3675 129.56 62.2191 129.348 62.0919ZM137.095 61.6339L137.807 62.2064C137.417 62.4862 136.993 62.7661 136.535 63.0459C136.077 63.3173 135.653 63.5505 135.263 63.7455L134.716 63.2494C134.97 63.1222 135.242 62.9653 135.53 62.7788C135.827 62.5837 136.111 62.3887 136.382 62.1936C136.662 61.9901 136.9 61.8035 137.095 61.6339ZM134.042 61.1506C134.372 62.1173 134.898 62.9484 135.619 63.6438C136.34 64.3392 137.218 64.8353 138.252 65.1321C138.15 65.2169 138.04 65.3356 137.921 65.4882C137.811 65.6409 137.726 65.7808 137.667 65.908C136.599 65.5349 135.695 64.9582 134.958 64.178C134.228 63.3894 133.677 62.4438 133.304 61.3414L134.042 61.1506ZM128.674 64.7632C129.106 64.619 129.628 64.4367 130.238 64.2162C130.857 63.9872 131.485 63.754 132.121 63.5166L132.286 64.2289C131.735 64.4579 131.184 64.6868 130.633 64.9158C130.09 65.1448 129.585 65.3483 129.119 65.5264L128.674 64.7632ZM132.541 54.3324H133.52V55.9606H132.541V54.3324ZM128.254 55.5027H138.367V56.355H128.254V55.5027ZM127.796 55.5027H128.712V59.2679C128.712 59.7683 128.695 60.311 128.661 60.8962C128.636 61.4813 128.58 62.0834 128.496 62.7025C128.411 63.313 128.284 63.9109 128.114 64.496C127.953 65.0727 127.741 65.6027 127.478 66.0861C127.419 66.0267 127.342 65.9631 127.249 65.8953C127.156 65.8274 127.058 65.7638 126.956 65.7045C126.855 65.6451 126.766 65.5985 126.689 65.5646C126.952 65.1066 127.156 64.6105 127.3 64.0763C127.444 63.542 127.55 62.995 127.618 62.4353C127.694 61.8672 127.741 61.3159 127.758 60.7817C127.783 60.2389 127.796 59.7344 127.796 59.2679V55.5027Z" fill="#1F2633"/>
<path d="M44.1973 78.6526H49.4763V79.5431H44.1973V78.6526ZM37.7862 77.9403H44.3245V78.7544H37.7862V77.9403ZM38.2569 80.7134H43.8666V81.5275H38.2569V80.7134ZM38.5876 82.825H43.5994V83.6263H38.5876V82.825ZM47.1993 75.3072H48.1152V85.7507C48.1152 86.0475 48.0728 86.2722 47.988 86.4248C47.9117 86.5775 47.7802 86.692 47.5937 86.7683C47.4071 86.8361 47.1527 86.8828 46.8304 86.9082C46.5082 86.9337 46.0842 86.9464 45.5584 86.9464C45.533 86.8192 45.4863 86.6665 45.4185 86.4884C45.3506 86.3188 45.2828 86.1704 45.2149 86.0432C45.605 86.0517 45.957 86.0559 46.2707 86.0559C46.5845 86.0559 46.788 86.0559 46.8813 86.0559C47 86.0475 47.0806 86.022 47.123 85.9796C47.1739 85.9372 47.1993 85.8609 47.1993 85.7507V75.3072ZM44.5916 80.8406L45.4057 80.5607C45.5838 80.866 45.7534 81.1925 45.9146 81.5402C46.0757 81.8879 46.2156 82.2271 46.3343 82.5578C46.4531 82.8886 46.5336 83.1854 46.576 83.4483L45.711 83.7663C45.6686 83.5034 45.5923 83.2066 45.4821 82.8758C45.3718 82.5366 45.2404 82.1889 45.0877 81.8328C44.9351 81.4766 44.7697 81.1459 44.5916 80.8406ZM37.9261 75.905L38.613 75.5997C38.8166 75.8966 39.0031 76.223 39.1727 76.5792C39.3508 76.9354 39.4738 77.2449 39.5416 77.5078L38.8038 77.8513C38.7445 77.5969 38.63 77.2831 38.4604 76.91C38.2993 76.5368 38.1212 76.2018 37.9261 75.905ZM38.842 79.0215L39.6052 78.7671C39.7664 79.03 39.9148 79.3226 40.0504 79.6448C40.1861 79.9586 40.2752 80.23 40.3176 80.459L39.5035 80.7515C39.4695 80.5226 39.389 80.2469 39.2618 79.9247C39.1431 79.594 39.0031 79.2929 38.842 79.0215ZM39.7833 75.2945H40.572V78.3346H39.7833V75.2945ZM40.6101 80.9805H41.5006V85.5726H40.6101V80.9805ZM41.5387 75.2945H42.3274V78.3346H41.5387V75.2945ZM37.8371 85.4708C38.3629 85.4114 38.9735 85.3394 39.6688 85.2546C40.3642 85.1698 41.102 85.0765 41.8822 84.9747C42.6624 84.8645 43.4383 84.7627 44.21 84.6694L44.2355 85.509C43.4892 85.6107 42.7387 85.7167 41.984 85.827C41.2292 85.9287 40.5084 86.0263 39.8215 86.1195C39.1346 86.2128 38.5155 86.2976 37.9643 86.374L37.8371 85.4708ZM43.5486 75.5361L44.3881 75.8669C44.2015 76.2061 44.0023 76.5623 43.7903 76.9354C43.5782 77.3 43.379 77.6138 43.1924 77.8767L42.5437 77.5841C42.6539 77.3976 42.7726 77.1856 42.8998 76.9481C43.027 76.7022 43.1458 76.4563 43.256 76.2103C43.3747 75.9559 43.4722 75.7312 43.5486 75.5361ZM42.4546 78.7417L43.345 78.9961C43.2094 79.3014 43.0652 79.6109 42.9125 79.9247C42.7599 80.2385 42.62 80.5098 42.4928 80.7388L41.7423 80.5226C41.8271 80.3614 41.9119 80.1791 41.9967 79.9756C42.09 79.7636 42.1748 79.5516 42.2511 79.3396C42.3359 79.1191 42.4037 78.9198 42.4546 78.7417ZM50.7483 75.9305H56.2436V76.8082H50.7483V75.9305ZM57.1467 79.5685H62.2603V80.4844H57.1467V79.5685ZM59.907 80.1537H60.8484V86.9337H59.907V80.1537ZM56.7778 76.4902L57.9735 76.7955C57.9566 76.8887 57.8718 76.9481 57.7191 76.9736V79.8865C57.7191 80.4038 57.6937 80.9635 57.6428 81.5656C57.5919 82.1592 57.4902 82.7698 57.3375 83.3974C57.1933 84.0249 56.9771 84.6397 56.6888 85.2418C56.4004 85.8439 56.0146 86.3994 55.5312 86.9082C55.4888 86.8319 55.4252 86.7513 55.3404 86.6665C55.2641 86.5817 55.175 86.5012 55.0733 86.4248C54.98 86.3485 54.8952 86.2934 54.8189 86.2595C55.2683 85.7846 55.6203 85.28 55.8747 84.7457C56.1376 84.2115 56.3326 83.6645 56.4598 83.1048C56.587 82.5366 56.6718 81.9812 56.7142 81.4384C56.7566 80.8872 56.7778 80.3657 56.7778 79.8738V76.4902ZM51.219 78.1438H52.1349V81.5783C52.1349 81.9854 52.1179 82.4221 52.084 82.8886C52.0585 83.355 52.0034 83.8299 51.9186 84.3132C51.8423 84.7881 51.732 85.2546 51.5879 85.7125C51.4437 86.1619 51.2444 86.5732 50.99 86.9464C50.9476 86.887 50.8798 86.8192 50.7865 86.7428C50.6932 86.675 50.5957 86.6029 50.4939 86.5266C50.4006 86.4588 50.3201 86.4079 50.2522 86.374C50.549 85.9075 50.7653 85.3945 50.901 84.8348C51.0367 84.2751 51.1215 83.7154 51.1554 83.1557C51.1978 82.5875 51.219 82.0575 51.219 81.5656V78.1438ZM61.1536 75.3835L61.9932 76.0958C61.5777 76.2994 61.107 76.4944 60.5812 76.681C60.0554 76.8591 59.5127 77.0287 58.953 77.1898C58.3933 77.3424 57.8463 77.4781 57.3121 77.5969C57.2866 77.4951 57.24 77.3679 57.1721 77.2152C57.1043 77.0626 57.0365 76.9354 56.9686 76.8336C57.4774 76.7064 57.9905 76.5665 58.5078 76.4139C59.0336 76.2612 59.5254 76.0958 59.9834 75.9178C60.4498 75.7397 60.8399 75.5616 61.1536 75.3835ZM51.7532 78.1438H55.9128V82.1126H51.7532V81.2476H54.9842V79.0215H51.7532V78.1438ZM63.4942 76.8845H74.6373V77.7749H63.4942V76.8845ZM66.6107 81.4257H72.5766V82.2398H66.6107V81.4257ZM65.9365 79.2505H72.4239V80.1155H66.8778V86.9209H65.9365V79.2505ZM72.2077 79.2505H73.149V85.7379C73.149 86.0178 73.1108 86.234 73.0345 86.3867C72.9582 86.5478 72.814 86.6708 72.602 86.7556C72.39 86.8234 72.1017 86.8616 71.737 86.87C71.3809 86.887 70.9314 86.8955 70.3887 86.8955C70.3632 86.7683 70.3208 86.6156 70.2615 86.4376C70.2021 86.2595 70.1385 86.1068 70.0707 85.9796C70.3505 85.9881 70.6134 85.9923 70.8593 85.9923C71.1137 86.0008 71.3342 86.0008 71.5208 85.9923C71.7074 85.9923 71.843 85.9923 71.9278 85.9923C72.0381 85.9923 72.1102 85.9711 72.1441 85.9287C72.1865 85.8948 72.2077 85.827 72.2077 85.7252V79.2505ZM67.6665 75.2309L68.6333 75.4598C68.3449 76.3842 67.9803 77.3 67.5393 78.2074C67.0983 79.1148 66.5683 79.9629 65.9492 80.7515C65.3302 81.5317 64.6178 82.2101 63.8122 82.7868C63.7698 82.7105 63.7104 82.6299 63.6341 82.5451C63.5578 82.4518 63.4815 82.3628 63.4052 82.278C63.3288 82.1847 63.261 82.1084 63.2016 82.049C63.7698 81.6589 64.2871 81.2052 64.7535 80.6879C65.2284 80.1706 65.6524 79.6152 66.0256 79.0215C66.3987 78.4194 66.721 77.8004 66.9923 77.1644C67.2637 76.5199 67.4884 75.8754 67.6665 75.2309ZM66.6107 83.5755H72.5766V84.4023H66.6107V83.5755ZM82.2441 76.91H87.4977V77.7749H82.2441V76.91ZM82.6003 75.2054L83.4653 75.4089C83.2448 76.1976 82.948 76.9524 82.5748 77.6732C82.2102 78.394 81.8116 79.0046 81.3791 79.5049C81.3282 79.4456 81.2562 79.3862 81.1629 79.3268C81.0696 79.259 80.9721 79.1911 80.8703 79.1233C80.777 79.0555 80.6922 79.0046 80.6159 78.9707C81.0484 78.5127 81.4342 77.953 81.7735 77.2916C82.1212 76.6216 82.3968 75.9262 82.6003 75.2054ZM82.6512 79.4668H87.2941V80.3063H82.6512V79.4668ZM81.2519 82.1889H87.5104V83.0666H81.2519V82.1889ZM82.7911 78.0675L83.6688 78.2583C83.4907 78.9283 83.2618 79.5728 82.9819 80.1918C82.7105 80.8109 82.4137 81.3324 82.0915 81.7564C82.0321 81.714 81.9558 81.6632 81.8625 81.6038C81.7692 81.5359 81.6759 81.4723 81.5827 81.413C81.4894 81.3536 81.4046 81.307 81.3282 81.2731C81.6675 80.866 81.96 80.3826 82.206 79.8229C82.4519 79.2548 82.6469 78.6696 82.7911 78.0675ZM75.9729 77.3552H81.1883V78.2583H75.9729V77.3552ZM77.8047 80.0519H80.1707V80.9169H77.8047V80.0519ZM78.2881 75.2563H79.2039V77.6223H78.2881V75.2563ZM77.4104 77.8767H78.3135C78.2965 78.7417 78.2626 79.6067 78.2117 80.4717C78.1693 81.3367 78.0888 82.1635 77.9701 82.9522C77.8513 83.7408 77.6732 84.4744 77.4358 85.1528C77.1983 85.8312 76.8803 86.4291 76.4818 86.9464C76.4139 86.8361 76.3079 86.7174 76.1638 86.5902C76.0281 86.4715 75.8966 86.3782 75.7694 86.3103C76.1426 85.8524 76.4351 85.3097 76.6471 84.6821C76.8591 84.0461 77.016 83.355 77.1178 82.6087C77.228 81.8624 77.3001 81.0907 77.334 80.2936C77.3764 79.488 77.4019 78.6823 77.4104 77.8767ZM79.9036 80.0519H80.8067C80.8067 80.0519 80.8067 80.0773 80.8067 80.1282C80.8067 80.1791 80.8067 80.2427 80.8067 80.319C80.8067 80.3869 80.8025 80.442 80.794 80.4844C80.7516 81.519 80.7092 82.3967 80.6668 83.1175C80.6244 83.8383 80.5777 84.4277 80.5269 84.8857C80.476 85.3436 80.4166 85.6998 80.3488 85.9542C80.2894 86.2086 80.2131 86.3909 80.1198 86.5012C80.0096 86.6453 79.8951 86.7428 79.7764 86.7937C79.6661 86.8531 79.5219 86.8955 79.3439 86.9209C79.2082 86.9379 79.0258 86.9464 78.7969 86.9464C78.5679 86.9464 78.3262 86.9379 78.0718 86.9209C78.0633 86.7937 78.0379 86.6453 77.9955 86.4757C77.9531 86.3061 77.898 86.1619 77.8301 86.0432C78.0676 86.0602 78.2881 86.0687 78.4916 86.0687C78.6951 86.0771 78.8435 86.0814 78.9368 86.0814C79.0301 86.0899 79.1064 86.0814 79.1658 86.0559C79.2251 86.039 79.2803 85.9923 79.3311 85.916C79.4244 85.8058 79.505 85.5598 79.5728 85.1782C79.6407 84.7881 79.7 84.1988 79.7509 83.4101C79.8103 82.6129 79.8612 81.5529 79.9036 80.23V80.0519ZM84.9663 82.7359C85.1953 83.5246 85.5514 84.2284 86.0348 84.8475C86.5182 85.4581 87.1118 85.9033 87.8157 86.1831C87.7139 86.2679 87.5994 86.3824 87.4722 86.5266C87.3535 86.6792 87.2602 86.8107 87.1924 86.9209C86.4631 86.5732 85.8482 86.0475 85.3479 85.3436C84.856 84.6397 84.4872 83.8383 84.2412 82.9394L84.9663 82.7359ZM83.9741 79.9247H84.8772V81.7564C84.8772 82.155 84.8391 82.579 84.7628 83.0285C84.6949 83.4695 84.5465 83.9189 84.3175 84.3768C84.0886 84.8348 83.7494 85.2842 83.2999 85.7252C82.8505 86.1662 82.2484 86.569 81.4936 86.9337C81.4258 86.8404 81.3325 86.7259 81.2138 86.5902C81.095 86.463 80.9848 86.3612 80.883 86.2849C81.6039 85.9542 82.172 85.598 82.5876 85.2164C83.0031 84.8263 83.3084 84.432 83.5034 84.0334C83.707 83.6263 83.8342 83.2278 83.8851 82.8377C83.9444 82.4391 83.9741 82.0744 83.9741 81.7437V79.9247ZM94.8755 77.7113H100.116V78.589H94.8755V77.7113ZM95.0536 80.3063H99.8874V81.1967H95.0536V80.3063ZM94.5829 83.0412H100.396V83.9443H94.5829V83.0412ZM95.0409 75.587L95.8041 75.3199C96.0161 75.6337 96.2069 75.9856 96.3765 76.3757C96.5546 76.7573 96.6733 77.0965 96.7327 77.3933L95.9059 77.6986C95.855 77.4018 95.7447 77.0584 95.5751 76.6683C95.414 76.2697 95.2359 75.9093 95.0409 75.587ZM98.9588 75.2181L99.8746 75.4471C99.705 75.8287 99.5269 76.223 99.3404 76.6301C99.1623 77.0287 98.9884 77.3679 98.8188 77.6477L98.0302 77.4315C98.1404 77.228 98.2507 76.999 98.3609 76.7446C98.4796 76.4817 98.5899 76.2188 98.6916 75.9559C98.8019 75.6845 98.8909 75.4386 98.9588 75.2181ZM96.9871 78.1184H97.903V86.9464H96.9871V78.1184ZM88.6934 77.9657H94.7483V78.7926H88.6934V77.9657ZM89.3421 75.8669H93.9851V80.8914H89.2785V80.0646H93.0946V76.6937H89.3421V75.8669ZM90.0163 82.2016H90.894V86.9337H90.0163V82.2016ZM90.3852 82.2016H94.1632V86.2467H90.3852V85.4072H93.2346V83.0412H90.3852V82.2016ZM90.9194 76.1722L91.8353 76.2103C91.7505 77.4569 91.6106 78.6018 91.4155 79.6448C91.2205 80.6879 90.9406 81.6292 90.576 82.4688C90.2198 83.3083 89.7364 84.0376 89.1259 84.6567C89.0919 84.5973 89.0368 84.521 88.9605 84.4277C88.8842 84.326 88.8036 84.2284 88.7188 84.1352C88.634 84.0419 88.5577 83.9698 88.4898 83.9189C89.058 83.3762 89.5032 82.7189 89.8255 81.9472C90.1562 81.1755 90.4022 80.3021 90.5633 79.3268C90.7329 78.3516 90.8516 77.3 90.9194 76.1722ZM101.732 76.1213H112.697V77.1008H101.732V76.1213ZM107.965 79.8356L108.677 79.2251C109.05 79.471 109.445 79.7381 109.86 80.0265C110.276 80.3063 110.683 80.5989 111.081 80.9042C111.48 81.2095 111.849 81.5063 112.188 81.7946C112.536 82.0829 112.828 82.3501 113.066 82.596L112.29 83.3338C112.061 83.0878 111.777 82.8165 111.438 82.5197C111.107 82.2144 110.746 81.9048 110.356 81.5911C109.966 81.2773 109.563 80.972 109.148 80.6752C108.741 80.3699 108.346 80.0901 107.965 79.8356ZM107.736 76.4647L108.766 76.8336C108.291 77.7071 107.715 78.5594 107.036 79.3904C106.358 80.2215 105.599 80.989 104.759 81.6928C103.928 82.3967 103.029 83.003 102.063 83.5119C102.02 83.4271 101.957 83.3338 101.872 83.232C101.795 83.1302 101.715 83.0285 101.63 82.9267C101.554 82.825 101.482 82.7401 101.414 82.6723C102.109 82.3246 102.771 81.9218 103.398 81.4639C104.034 80.9974 104.624 80.4929 105.166 79.9501C105.709 79.3989 106.197 78.8307 106.629 78.2456C107.07 77.652 107.439 77.0584 107.736 76.4647ZM106.693 78.9961L107.723 77.9785V77.9912V86.9082H106.693V78.9961ZM121.957 75.3199H122.835V85.4326H121.957V75.3199ZM119.222 78.0548H125.901V78.7926H119.222V78.0548ZM119.502 83.232H125.646V83.9698H119.502V83.232ZM119.884 81.4893H125.29V82.2398H119.884V81.4893ZM117.009 76.2866H118.854V77.0753H117.009V76.2866ZM117.48 79.8484H119.108V80.5989H117.48V79.8484ZM118.637 76.2866H118.764L118.904 76.2358L119.515 76.4139C119.345 76.8548 119.142 77.3509 118.904 77.9021C118.667 78.4534 118.421 79.0173 118.167 79.594C117.921 80.1621 117.679 80.6964 117.442 81.1967L116.64 80.9932C116.818 80.6286 117.001 80.2342 117.187 79.8102C117.382 79.3862 117.569 78.9622 117.747 78.5382C117.933 78.1142 118.103 77.7198 118.256 77.3552C118.408 76.982 118.536 76.664 118.637 76.4011V76.2866ZM118.866 79.8484H119.019L119.172 79.8229L119.693 79.9247C119.54 81.6886 119.235 83.1345 118.777 84.2624C118.319 85.3902 117.696 86.2637 116.907 86.8828C116.865 86.8149 116.81 86.7386 116.742 86.6538C116.683 86.569 116.619 86.4842 116.551 86.3994C116.483 86.3146 116.415 86.2467 116.348 86.1959C116.806 85.8567 117.208 85.3987 117.556 84.8221C117.904 84.2369 118.188 83.5415 118.408 82.7359C118.629 81.9303 118.781 81.0229 118.866 80.0137V79.8484ZM117.543 81.6292C117.713 82.4857 117.938 83.1896 118.217 83.7408C118.506 84.292 118.849 84.7203 119.248 85.0256C119.655 85.3224 120.117 85.5344 120.634 85.6616C121.16 85.7803 121.745 85.8397 122.39 85.8397C122.475 85.8397 122.631 85.8397 122.86 85.8397C123.089 85.8397 123.352 85.8397 123.649 85.8397C123.954 85.8397 124.26 85.8397 124.565 85.8397C124.879 85.8312 125.159 85.827 125.405 85.827C125.65 85.827 125.824 85.8227 125.926 85.8143C125.884 85.8906 125.837 85.9796 125.786 86.0814C125.744 86.1916 125.706 86.3019 125.672 86.4121C125.638 86.5224 125.612 86.6156 125.595 86.692H124.972H122.364C121.601 86.692 120.918 86.6199 120.316 86.4757C119.723 86.34 119.201 86.0983 118.752 85.7507C118.302 85.3945 117.916 84.9026 117.594 84.2751C117.272 83.6475 117.009 82.8419 116.806 81.8582L117.543 81.6292ZM120.087 76.3375H125.125V80.5226H120.087V79.7848H124.298V77.0753H120.087V76.3375ZM116.335 75.2945L117.2 75.5361C116.988 76.24 116.729 76.9354 116.424 77.6223C116.127 78.3092 115.801 78.9579 115.444 79.5685C115.088 80.1706 114.711 80.7091 114.312 81.184C114.287 81.1077 114.244 81.0102 114.185 80.8914C114.126 80.7727 114.066 80.6498 114.007 80.5226C113.948 80.3953 113.893 80.2936 113.842 80.2173C114.367 79.6152 114.847 78.8816 115.279 78.0166C115.712 77.1432 116.064 76.2358 116.335 75.2945ZM115.444 78.5127L116.284 77.6732L116.297 77.6986V86.9082H115.444V78.5127ZM129.03 79.8993H138.507V80.6243H129.03V79.8993ZM129.92 78.2583H137.247V82.3161H129.819V81.6165H136.344V78.9579H129.92V78.2583ZM132.91 77.3424H133.825V85.8397C133.825 86.1365 133.783 86.3528 133.698 86.4884C133.622 86.6326 133.482 86.7386 133.278 86.8064C133.075 86.8743 132.799 86.9124 132.452 86.9209C132.104 86.9379 131.667 86.9464 131.141 86.9464C131.116 86.8361 131.074 86.6962 131.014 86.5266C130.963 86.3655 130.9 86.2255 130.823 86.1068C131.095 86.1153 131.349 86.1195 131.587 86.1195C131.833 86.128 132.045 86.128 132.223 86.1195C132.409 86.1195 132.541 86.1195 132.617 86.1195C132.727 86.1195 132.804 86.0983 132.846 86.0559C132.888 86.0135 132.91 85.9415 132.91 85.8397V77.3424ZM129.348 82.9903L129.895 82.4815C130.115 82.6002 130.344 82.7401 130.582 82.9013C130.819 83.0539 131.044 83.2066 131.256 83.3592C131.476 83.5119 131.655 83.656 131.79 83.7917L131.205 84.3641C131.078 84.2284 130.908 84.08 130.696 83.9189C130.484 83.7578 130.26 83.5967 130.022 83.4355C129.785 83.2659 129.56 83.1175 129.348 82.9903ZM137.095 82.5324L137.807 83.1048C137.417 83.3846 136.993 83.6645 136.535 83.9443C136.077 84.2157 135.653 84.4489 135.263 84.644L134.716 84.1479C134.97 84.0207 135.242 83.8638 135.53 83.6772C135.827 83.4822 136.111 83.2871 136.382 83.0921C136.662 82.8886 136.9 82.702 137.095 82.5324ZM134.042 82.049C134.372 83.0158 134.898 83.8468 135.619 84.5422C136.34 85.2376 137.218 85.7337 138.252 86.0305C138.15 86.1153 138.04 86.234 137.921 86.3867C137.811 86.5393 137.726 86.6792 137.667 86.8064C136.599 86.4333 135.695 85.8567 134.958 85.0765C134.228 84.2878 133.677 83.3422 133.304 82.2398L134.042 82.049ZM128.674 85.6616C129.106 85.5174 129.628 85.3351 130.238 85.1146C130.857 84.8857 131.485 84.6525 132.121 84.415L132.286 85.1273C131.735 85.3563 131.184 85.5853 130.633 85.8143C130.09 86.0432 129.585 86.2467 129.119 86.4248L128.674 85.6616ZM132.541 75.2309H133.52V76.8591H132.541V75.2309ZM128.254 76.4011H138.367V77.2534H128.254V76.4011ZM127.796 76.4011H128.712V80.1664C128.712 80.6667 128.695 81.2095 128.661 81.7946C128.636 82.3797 128.58 82.9818 128.496 83.6009C128.411 84.2115 128.284 84.8093 128.114 85.3945C127.953 85.9711 127.741 86.5012 127.478 86.9845C127.419 86.9252 127.342 86.8616 127.249 86.7937C127.156 86.7259 127.058 86.6623 126.956 86.6029C126.855 86.5436 126.766 86.4969 126.689 86.463C126.952 86.0051 127.156 85.509 127.3 84.9747C127.444 84.4404 127.55 83.8935 127.618 83.3338C127.694 82.7656 127.741 82.2144 127.758 81.6801C127.783 81.1374 127.796 80.6328 127.796 80.1664V76.4011Z" fill="#1F2633"/>
<path d="M45.0877 100.787H49.2219V101.691H45.0877V100.787ZM45.0877 106.562H49.4381V107.466H45.0877V106.562ZM45.0369 103.65H48.9547V104.527H45.0369V103.65ZM38.2314 100.787H41.9712V101.691H38.2314V100.787ZM38.3714 103.65H41.9458V104.527H38.3714V103.65ZM44.5916 98.9175H45.5457V110.557H44.5916V98.9175ZM37.7608 106.83C38.2272 106.762 38.7699 106.681 39.389 106.588C40.0165 106.486 40.678 106.376 41.3734 106.257C42.0772 106.138 42.7811 106.02 43.485 105.901L43.5231 106.753C42.8617 106.872 42.2002 106.995 41.5387 107.122C40.8773 107.241 40.2413 107.355 39.6307 107.466C39.0201 107.576 38.4604 107.678 37.9516 107.771L37.7608 106.83ZM41.5515 98.9175H42.4801V104.858C42.4801 105.273 42.4376 105.74 42.3528 106.257C42.268 106.774 42.1027 107.309 41.8567 107.86C41.6108 108.403 41.2504 108.92 40.7755 109.412C40.3091 109.904 39.69 110.332 38.9183 110.697C38.842 110.586 38.736 110.459 38.6003 110.315C38.4646 110.179 38.3417 110.065 38.2314 109.972C38.8081 109.726 39.2915 109.437 39.6816 109.107C40.0801 108.767 40.4024 108.407 40.6483 108.025C40.8942 107.644 41.0808 107.262 41.208 106.88C41.3437 106.499 41.4327 106.134 41.4751 105.787C41.526 105.43 41.5515 105.121 41.5515 104.858V98.9175ZM56.0019 105.049H56.9813V110.557H56.0019V105.049ZM53.9539 103.293V104.54H58.7749V103.293H53.9539ZM53.038 102.568H59.7417V105.265H53.038V102.568ZM51.9059 106.321H60.4159V107.186H52.8599V109.984H51.9059V106.321ZM59.9452 106.321H60.912V108.992C60.912 109.238 60.878 109.429 60.8102 109.565C60.7508 109.709 60.6194 109.819 60.4159 109.895C60.2123 109.963 59.9452 110.001 59.6145 110.01C59.2837 110.027 58.8724 110.035 58.3806 110.035C58.3551 109.908 58.3085 109.764 58.2407 109.603C58.1813 109.442 58.1177 109.297 58.0499 109.17C58.3043 109.179 58.5417 109.187 58.7622 109.196C58.9912 109.196 59.1862 109.196 59.3473 109.196C59.5085 109.196 59.623 109.196 59.6908 109.196C59.7926 109.179 59.8604 109.157 59.8943 109.132C59.9282 109.107 59.9452 109.056 59.9452 108.979V106.321ZM55.9255 98.8412H56.8923V101.169H55.9255V98.8412ZM51.0663 100.826H61.6879V103.56H60.7466V101.665H51.9822V103.56H51.0663V100.826ZM52.1094 99.3246L52.9744 98.9684C53.1779 99.1974 53.3772 99.4518 53.5723 99.7316C53.7758 100.011 53.9327 100.253 54.0429 100.457L53.1398 100.889C53.0465 100.669 52.8981 100.41 52.6946 100.113C52.4995 99.8164 52.3045 99.5535 52.1094 99.3246ZM59.6781 98.9557L60.6703 99.2991C60.4583 99.5705 60.2378 99.8461 60.0088 100.126C59.7798 100.397 59.5721 100.631 59.3855 100.826L58.5968 100.508C58.724 100.372 58.8512 100.211 58.9784 100.024C59.1141 99.8376 59.2413 99.651 59.3601 99.4645C59.4873 99.2694 59.5933 99.0998 59.6781 98.9557ZM63.5705 99.7443H74.5355V100.724H63.5705V99.7443ZM69.8035 103.459L70.5159 102.848C70.889 103.094 71.2833 103.361 71.6989 103.65C72.1144 103.929 72.5215 104.222 72.92 104.527C73.3186 104.833 73.6875 105.129 74.0267 105.418C74.3744 105.706 74.667 105.973 74.9044 106.219L74.1285 106.957C73.8995 106.711 73.6154 106.44 73.2762 106.143C72.9455 105.837 72.5851 105.528 72.195 105.214C71.8049 104.9 71.4021 104.595 70.9865 104.298C70.5795 103.993 70.1851 103.713 69.8035 103.459ZM69.5746 100.088L70.6049 100.457C70.13 101.33 69.5534 102.182 68.8749 103.013C68.1965 103.845 67.4375 104.612 66.598 105.316C65.7669 106.02 64.868 106.626 63.9013 107.135C63.8589 107.05 63.7953 106.957 63.7104 106.855C63.6341 106.753 63.5536 106.652 63.4688 106.55C63.3924 106.448 63.3204 106.363 63.2525 106.295C63.9479 105.948 64.6094 105.545 65.2369 105.087C65.8729 104.62 66.4623 104.116 67.005 103.573C67.5478 103.022 68.0354 102.454 68.4679 101.869C68.9089 101.275 69.2778 100.681 69.5746 100.088ZM68.5315 102.619L69.5618 101.602V101.614V110.531H68.5315V102.619ZM83.796 98.9429H84.6737V109.056H83.796V98.9429ZM81.0611 101.678H87.7393V102.416H81.0611V101.678ZM81.341 106.855H87.4849V107.593H81.341V106.855ZM81.7226 105.112H87.1288V105.863H81.7226V105.112ZM78.8478 99.9097H80.6922V100.698H78.8478V99.9097ZM79.3184 103.471H80.9466V104.222H79.3184V103.471ZM80.476 99.9097H80.6032L80.7431 99.8588L81.3537 100.037C81.1841 100.478 80.9806 100.974 80.7431 101.525C80.5057 102.076 80.2597 102.64 80.0053 103.217C79.7594 103.785 79.5177 104.319 79.2803 104.82L78.4789 104.616C78.657 104.252 78.8393 103.857 79.0258 103.433C79.2209 103.009 79.4075 102.585 79.5855 102.161C79.7721 101.737 79.9417 101.343 80.0944 100.978C80.247 100.605 80.3742 100.287 80.476 100.024V99.9097ZM80.7049 103.471H80.8576L81.0102 103.446L81.5318 103.548C81.3791 105.312 81.0738 106.758 80.6159 107.885C80.158 109.013 79.5347 109.887 78.746 110.506C78.7036 110.438 78.6485 110.362 78.5806 110.277C78.5213 110.192 78.4577 110.107 78.3898 110.022C78.322 109.938 78.2541 109.87 78.1863 109.819C78.6442 109.48 79.047 109.022 79.3947 108.445C79.7424 107.86 80.0265 107.165 80.247 106.359C80.4675 105.553 80.6201 104.646 80.7049 103.637V103.471ZM79.382 105.252C79.5516 106.109 79.7764 106.813 80.0562 107.364C80.3445 107.915 80.688 108.343 81.0866 108.649C81.4936 108.945 81.9558 109.157 82.4731 109.285C82.9989 109.403 83.584 109.463 84.2285 109.463C84.3133 109.463 84.4702 109.463 84.6992 109.463C84.9281 109.463 85.191 109.463 85.4878 109.463C85.7931 109.463 86.0984 109.463 86.4037 109.463C86.7175 109.454 86.9973 109.45 87.2432 109.45C87.4892 109.45 87.663 109.446 87.7648 109.437C87.7224 109.514 87.6757 109.603 87.6249 109.704C87.5825 109.815 87.5443 109.925 87.5104 110.035C87.4765 110.145 87.451 110.239 87.4341 110.315H86.8108H84.2031C83.4398 110.315 82.7572 110.243 82.1551 110.099C81.5615 109.963 81.0399 109.721 80.5905 109.374C80.141 109.018 79.7552 108.526 79.4329 107.898C79.1107 107.271 78.8478 106.465 78.6442 105.481L79.382 105.252ZM81.9261 99.9606H86.9634V104.146H81.9261V103.408H86.1366V100.698H81.9261V99.9606ZM78.1736 98.9175L79.0386 99.1592C78.8266 99.8631 78.5679 100.558 78.2626 101.245C77.9658 101.932 77.6393 102.581 77.2831 103.192C76.927 103.794 76.5496 104.332 76.151 104.807C76.1256 104.731 76.0832 104.633 76.0238 104.514C75.9645 104.396 75.9051 104.273 75.8457 104.146C75.7864 104.018 75.7313 103.917 75.6804 103.84C76.2062 103.238 76.6853 102.505 77.1178 101.64C77.5503 100.766 77.9022 99.8588 78.1736 98.9175ZM77.2831 102.136L78.1227 101.296L78.1354 101.322V110.531H77.2831V102.136ZM90.8686 103.522H100.345V104.247H90.8686V103.522ZM91.759 101.881H99.086V105.939H91.6572V105.24H98.1828V102.581H91.759V101.881ZM94.7483 100.965H95.6642V109.463C95.6642 109.76 95.6218 109.976 95.537 110.111C95.4606 110.256 95.3207 110.362 95.1172 110.429C94.9137 110.497 94.6381 110.535 94.2904 110.544C93.9427 110.561 93.5059 110.569 92.9802 110.569C92.9547 110.459 92.9123 110.319 92.853 110.15C92.8021 109.989 92.7385 109.849 92.6621 109.73C92.9335 109.738 93.1879 109.743 93.4254 109.743C93.6713 109.751 93.8833 109.751 94.0614 109.743C94.248 109.743 94.3794 109.743 94.4557 109.743C94.566 109.743 94.6423 109.721 94.6847 109.679C94.7271 109.637 94.7483 109.565 94.7483 109.463V100.965ZM91.1866 106.613L91.7336 106.105C91.954 106.223 92.183 106.363 92.4205 106.524C92.6579 106.677 92.8826 106.83 93.0946 106.982C93.3151 107.135 93.4932 107.279 93.6289 107.415L93.0438 107.987C92.9166 107.851 92.747 107.703 92.5349 107.542C92.3229 107.381 92.0982 107.22 91.8608 107.059C91.6233 106.889 91.3986 106.741 91.1866 106.613ZM98.9333 106.155L99.6457 106.728C99.2556 107.008 98.8316 107.288 98.3736 107.567C97.9157 107.839 97.4917 108.072 97.1016 108.267L96.5546 107.771C96.809 107.644 97.0804 107.487 97.3687 107.3C97.6655 107.105 97.9496 106.91 98.221 106.715C98.5008 106.512 98.7383 106.325 98.9333 106.155ZM95.8804 105.672C96.2111 106.639 96.7369 107.47 97.4578 108.165C98.1786 108.861 99.0563 109.357 100.091 109.654C99.9891 109.738 99.8789 109.857 99.7601 110.01C99.6499 110.162 99.5651 110.302 99.5057 110.429C98.4372 110.056 97.5341 109.48 96.7963 108.7C96.067 107.911 95.5158 106.965 95.1426 105.863L95.8804 105.672ZM90.5124 109.285C90.9449 109.14 91.4664 108.958 92.077 108.738C92.6961 108.509 93.3236 108.275 93.9596 108.038L94.125 108.75C93.5738 108.979 93.0226 109.208 92.4713 109.437C91.9286 109.666 91.424 109.87 90.9576 110.048L90.5124 109.285ZM94.3794 98.8539H95.3589V100.482H94.3794V98.8539ZM90.0926 100.024H100.205V100.876H90.0926V100.024ZM89.6347 100.024H90.5506V103.789C90.5506 104.29 90.5336 104.833 90.4997 105.418C90.4742 106.003 90.4191 106.605 90.3343 107.224C90.2495 107.835 90.1223 108.432 89.9527 109.018C89.7916 109.594 89.5796 110.124 89.3167 110.608C89.2573 110.548 89.181 110.485 89.0877 110.417C88.9944 110.349 88.8969 110.285 88.7951 110.226C88.6934 110.167 88.6043 110.12 88.528 110.086C88.7909 109.628 88.9944 109.132 89.1386 108.598C89.2828 108.063 89.3888 107.517 89.4566 106.957C89.5329 106.389 89.5796 105.837 89.5965 105.303C89.622 104.76 89.6347 104.256 89.6347 103.789V100.024Z" fill="#1F2633"/>
<path d="M41.0426 121.513H45.2658V122.34H41.0426V121.513ZM41.2334 120.635L42.302 120.813C42.0391 121.339 41.7211 121.882 41.3479 122.441C40.9748 123.001 40.5465 123.548 40.0632 124.082C39.5798 124.608 39.0328 125.096 38.4222 125.545C38.3714 125.469 38.3035 125.388 38.2187 125.303C38.1339 125.219 38.0449 125.134 37.9516 125.049C37.8668 124.964 37.7862 124.901 37.7099 124.858C38.2865 124.451 38.7996 124.01 39.2491 123.535C39.707 123.052 40.1013 122.56 40.4321 122.06C40.7628 121.559 41.0299 121.085 41.2334 120.635ZM39.8596 123.688H49.2219V124.566H39.8596V123.688ZM42.1366 125.787H46.894V126.626H42.1366V125.787ZM41.6659 125.787H42.5945V130.684C42.5945 130.871 42.6242 131.015 42.6836 131.117C42.7429 131.21 42.8574 131.278 43.027 131.32C43.2051 131.354 43.4638 131.371 43.803 131.371C43.9047 131.371 44.0701 131.371 44.2991 131.371C44.528 131.371 44.7909 131.371 45.0877 131.371C45.393 131.371 45.6983 131.371 46.0036 131.371C46.3089 131.371 46.5845 131.371 46.8304 131.371C47.0848 131.371 47.2757 131.371 47.4029 131.371C47.7081 131.371 47.9329 131.325 48.077 131.231C48.2297 131.138 48.3357 130.956 48.3951 130.684C48.4629 130.413 48.5095 130.01 48.535 129.476C48.6537 129.552 48.7979 129.624 48.9675 129.692C49.1456 129.76 49.3024 129.811 49.4381 129.845C49.3872 130.472 49.2982 130.964 49.171 131.32C49.0523 131.668 48.8572 131.91 48.5859 132.045C48.323 132.181 47.9414 132.249 47.441 132.249C47.3732 132.249 47.246 132.249 47.0594 132.249C46.8728 132.249 46.6524 132.249 46.3979 132.249C46.1435 132.249 45.8764 132.249 45.5966 132.249C45.3252 132.249 45.0623 132.249 44.8079 132.249C44.5535 132.249 44.333 132.249 44.1464 132.249C43.9683 132.249 43.8496 132.249 43.7903 132.249C43.2475 132.249 42.8193 132.206 42.5055 132.122C42.2002 132.037 41.984 131.88 41.8567 131.651C41.7295 131.431 41.6659 131.112 41.6659 130.697V125.787ZM46.5887 125.787H47.5173C47.5173 125.787 47.5173 125.834 47.5173 125.927C47.5173 126.02 47.5131 126.101 47.5046 126.168C47.4707 126.83 47.4283 127.373 47.3774 127.797C47.3265 128.221 47.2672 128.547 47.1993 128.776C47.14 129.005 47.0594 129.175 46.9576 129.285C46.8559 129.395 46.7456 129.476 46.6269 129.527C46.5082 129.569 46.3598 129.595 46.1817 129.603C46.0291 129.62 45.8086 129.628 45.5202 129.628C45.2319 129.628 44.9309 129.616 44.6171 129.59C44.6086 129.463 44.5789 129.323 44.528 129.171C44.4856 129.009 44.4305 128.869 44.3627 128.751C44.668 128.776 44.9521 128.793 45.2149 128.802C45.4778 128.81 45.6559 128.814 45.7492 128.814C45.8594 128.814 45.9485 128.81 46.0163 128.802C46.0842 128.785 46.1393 128.751 46.1817 128.7C46.2495 128.632 46.3047 128.501 46.3471 128.306C46.3979 128.11 46.4403 127.818 46.4743 127.428C46.5167 127.038 46.5548 126.533 46.5887 125.914V125.787ZM39.389 123.688H40.3303V126.181C40.3303 126.639 40.3049 127.139 40.254 127.682C40.2116 128.225 40.1225 128.776 39.9868 129.336C39.8512 129.896 39.6519 130.443 39.389 130.977C39.1346 131.503 38.8038 131.982 38.3968 132.414C38.3544 132.355 38.2865 132.283 38.1933 132.198C38.1 132.113 38.0067 132.033 37.9134 131.956C37.8201 131.88 37.7353 131.821 37.659 131.778C38.0406 131.371 38.3459 130.93 38.5749 130.455C38.8123 129.98 38.9862 129.493 39.0964 128.992C39.2151 128.492 39.2915 128 39.3254 127.517C39.3678 127.033 39.389 126.584 39.389 126.168V123.688ZM44.9224 121.513H45.1513L45.3167 121.462L46.0036 121.92C45.8679 122.2 45.7068 122.492 45.5202 122.798C45.3421 123.103 45.1556 123.395 44.9605 123.675C44.7655 123.955 44.5789 124.205 44.4008 124.426C44.3076 124.349 44.1888 124.269 44.0447 124.184C43.9005 124.099 43.7733 124.027 43.6631 123.968C43.8242 123.764 43.9853 123.531 44.1464 123.268C44.3076 122.997 44.456 122.725 44.5916 122.454C44.7358 122.174 44.8461 121.928 44.9224 121.716V121.513ZM56.2181 123.535H60.0342V124.286H56.2181V123.535ZM55.6839 125.927V127.619H57.0068V125.927H55.6839ZM54.9461 125.253H57.77V128.318H54.9461V125.253ZM59.271 125.927V127.619H60.6703V125.927H59.271ZM58.5332 125.253H61.4335V128.318H58.5332V125.253ZM56.0019 128.624L56.8669 128.789C56.6548 129.552 56.3411 130.243 55.9255 130.862C55.5185 131.473 55.0436 131.977 54.5009 132.376C54.4669 132.325 54.4076 132.262 54.3228 132.185C54.2464 132.109 54.1659 132.033 54.0811 131.956C53.9963 131.88 53.92 131.816 53.8521 131.765C54.3694 131.418 54.8146 130.977 55.1878 130.443C55.5609 129.9 55.8323 129.293 56.0019 128.624ZM55.8238 130.188L56.3962 129.679C56.6591 129.874 56.9262 130.103 57.1976 130.366C57.469 130.621 57.6767 130.845 57.8209 131.04L57.223 131.613C57.0873 131.409 56.8838 131.172 56.6124 130.9C56.3496 130.629 56.0867 130.392 55.8238 130.188ZM59.5 128.611L60.365 128.751C60.2039 129.531 59.9367 130.226 59.5636 130.837C59.1989 131.447 58.7495 131.952 58.2152 132.351C58.1728 132.3 58.1092 132.232 58.0244 132.147C57.9481 132.071 57.8675 131.994 57.7827 131.918C57.6979 131.842 57.6258 131.778 57.5665 131.727C58.0668 131.397 58.4781 130.968 58.8004 130.443C59.1311 129.908 59.3643 129.298 59.5 128.611ZM59.2456 130.226L59.8434 129.692C60.1148 129.887 60.3947 130.108 60.683 130.354C60.9798 130.591 61.2596 130.833 61.5225 131.079C61.7854 131.316 61.9974 131.532 62.1586 131.727L61.5353 132.338C61.3741 132.143 61.1664 131.922 60.912 131.676C60.6575 131.431 60.3819 131.18 60.0851 130.926C59.7968 130.672 59.5169 130.438 59.2456 130.226ZM58.0753 121.564C57.8294 121.954 57.5156 122.352 57.134 122.759C56.7524 123.158 56.3326 123.54 55.8747 123.904C55.4167 124.26 54.9376 124.574 54.4373 124.846C54.3949 124.727 54.3228 124.591 54.221 124.439C54.1277 124.286 54.0387 124.159 53.9539 124.057C54.4542 123.802 54.9334 123.493 55.3913 123.128C55.8577 122.764 56.2817 122.369 56.6633 121.945C57.0449 121.521 57.3502 121.106 57.5792 120.699H58.4824C58.7961 121.148 59.1608 121.581 59.5763 121.996C60.0003 122.412 60.4455 122.785 60.912 123.116C61.3869 123.446 61.8575 123.722 62.3239 123.942C62.2306 124.044 62.1331 124.176 62.0314 124.337C61.9381 124.498 61.8533 124.646 61.7769 124.782C61.3275 124.536 60.8696 124.239 60.4031 123.892C59.9452 123.544 59.5127 123.171 59.1057 122.772C58.6986 122.374 58.3551 121.971 58.0753 121.564ZM51.0027 121.208H53.8521V122.073H51.855V132.363H51.0027V121.208ZM53.5595 121.208H53.7249L53.8648 121.169L54.4881 121.538C54.3779 121.886 54.2549 122.255 54.1192 122.645C53.992 123.035 53.8606 123.425 53.7249 123.815C53.5892 124.205 53.4535 124.57 53.3179 124.909C53.7419 125.443 54.0217 125.94 54.1574 126.397C54.3016 126.847 54.3737 127.271 54.3737 127.669C54.3737 128 54.3355 128.297 54.2592 128.56C54.1828 128.814 54.0599 129.005 53.8903 129.132C53.8055 129.192 53.708 129.238 53.5977 129.272C53.4959 129.306 53.3815 129.332 53.2543 129.349C53.144 129.357 53.0168 129.366 52.8726 129.374C52.7285 129.383 52.5886 129.383 52.4529 129.374C52.4444 129.255 52.4189 129.115 52.3765 128.954C52.3426 128.793 52.2917 128.653 52.2239 128.534C52.3596 128.543 52.4825 128.547 52.5928 128.547C52.703 128.547 52.8006 128.547 52.8854 128.547C53.055 128.547 53.1864 128.509 53.2797 128.433C53.3645 128.365 53.4239 128.25 53.4578 128.089C53.5002 127.928 53.5214 127.754 53.5214 127.568C53.5129 127.22 53.4408 126.834 53.3051 126.41C53.1695 125.986 52.8896 125.524 52.4656 125.024C52.5674 124.735 52.6691 124.43 52.7709 124.108C52.8811 123.777 52.9829 123.455 53.0762 123.141C53.1779 122.819 53.267 122.513 53.3433 122.225C53.4281 121.937 53.5002 121.687 53.5595 121.475V121.208Z" fill="#1F2633"/>
<path d="M44.6807 147.134H49.3491V147.91H44.6807V147.134ZM38.0152 145.061H43.7521V145.697H38.0152V145.061ZM37.888 149.462H43.6122V150.085H37.888V149.462ZM46.8813 147.452H47.759V150.912H46.8813V147.452ZM48.2424 144.399L48.9547 145.035C48.5731 145.171 48.1449 145.294 47.67 145.404C47.2036 145.514 46.7202 145.612 46.2199 145.697C45.7195 145.781 45.2361 145.849 44.7697 145.9C44.7528 145.815 44.7188 145.705 44.668 145.569C44.6171 145.425 44.5662 145.306 44.5153 145.213C44.9478 145.154 45.3973 145.082 45.8637 144.997C46.3301 144.904 46.7711 144.806 47.1866 144.704C47.6021 144.603 47.9541 144.501 48.2424 144.399ZM39.6688 151.23H47.5682V155.962H46.5887V151.98H40.6101V155.987H39.6688V151.23ZM40.1649 153.024H47.0848V153.723H40.1649V153.024ZM40.1649 154.779H47.0594V155.542H40.1649V154.779ZM39.1346 147.808V148.444H42.6581V147.808H39.1346ZM39.1346 146.714V147.325H42.6581V146.714H39.1346ZM38.3841 146.205H43.4214V148.94H38.3841V146.205ZM40.4702 144.272H41.3098V150.937H40.4702V144.272ZM44.2736 144.895L45.3676 145.162C45.3591 145.256 45.2785 145.315 45.1259 145.34V147.172C45.1259 147.562 45.0835 147.986 44.9987 148.444C44.9224 148.902 44.7697 149.36 44.5408 149.818C44.3203 150.267 43.9853 150.674 43.5358 151.039C43.5019 150.971 43.451 150.895 43.3832 150.81C43.3154 150.717 43.2433 150.636 43.167 150.568C43.0906 150.492 43.0185 150.437 42.9507 150.403C43.3323 150.081 43.6164 149.733 43.803 149.36C43.998 148.987 44.1252 148.61 44.1846 148.228C44.244 147.846 44.2736 147.486 44.2736 147.147V144.895ZM53.2288 144.285L54.1574 144.552C53.9284 145.027 53.6571 145.493 53.3433 145.951C53.0295 146.4 52.6946 146.82 52.3384 147.21C51.9907 147.6 51.6388 147.944 51.2826 148.241C51.2317 148.181 51.1554 148.113 51.0536 148.037C50.9603 147.952 50.8628 147.872 50.7611 147.795C50.6678 147.719 50.583 147.66 50.5066 147.617C51.0494 147.21 51.5624 146.714 52.0458 146.129C52.5292 145.544 52.9235 144.929 53.2288 144.285ZM52.7836 145.747H61.548V146.612H52.4656L52.7836 145.747ZM50.6593 148.749H62.0186V149.627H50.6593V148.749ZM50.8501 151.79H61.8533V152.667H50.8501V151.79ZM54.7044 146.04H55.5439V152.209H54.7044V146.04ZM52.4401 146.04H53.2924V152.248H52.4401V146.04ZM57.0068 146.04H57.8336V152.248H57.0068V146.04ZM59.3346 146.04H60.2251V152.248H59.3346V146.04ZM54.3609 153.532L55.2386 153.443C55.3234 153.816 55.3955 154.219 55.4549 154.652C55.5143 155.084 55.5482 155.449 55.5567 155.746L54.6281 155.873C54.6281 155.669 54.6153 155.432 54.5899 155.161C54.5729 154.898 54.5433 154.622 54.5009 154.334C54.4669 154.045 54.4203 153.778 54.3609 153.532ZM56.9559 153.532L57.8463 153.367C57.9651 153.613 58.0795 153.88 58.1898 154.168C58.3 154.448 58.3975 154.72 58.4824 154.982C58.5672 155.245 58.6308 155.479 58.6732 155.682L57.7318 155.886C57.6725 155.58 57.5707 155.207 57.4266 154.766C57.2824 154.325 57.1255 153.914 56.9559 153.532ZM59.5509 153.443L60.454 153.151C60.666 153.397 60.8823 153.672 61.1028 153.978C61.3232 154.283 61.5268 154.584 61.7133 154.881C61.9084 155.169 62.061 155.432 62.1713 155.669L61.23 156.013C61.1282 155.784 60.984 155.521 60.7975 155.224C60.6194 154.927 60.4201 154.622 60.1996 154.308C59.9791 153.994 59.7629 153.706 59.5509 153.443ZM52.1349 153.202L53.0507 153.431C52.8811 153.905 52.6606 154.376 52.3893 154.843C52.1179 155.309 51.8084 155.695 51.4607 156L50.5702 155.631C50.901 155.36 51.2063 155.004 51.4861 154.563C51.766 154.122 51.9822 153.668 52.1349 153.202ZM63.914 145.226L64.3465 144.564C64.6433 144.641 64.9571 144.738 65.2878 144.857C65.6185 144.967 65.9365 145.086 66.2418 145.213C66.5556 145.332 66.8142 145.442 67.0178 145.544L66.598 146.294C66.3945 146.176 66.1401 146.053 65.8348 145.926C65.5295 145.798 65.2072 145.671 64.868 145.544C64.5288 145.417 64.2108 145.311 63.914 145.226ZM63.278 147.91C63.7359 147.791 64.2829 147.643 64.9189 147.465C65.5634 147.287 66.2121 147.109 66.8651 146.93L66.9669 147.694C66.3987 147.88 65.822 148.067 65.2369 148.253C64.6602 148.431 64.1345 148.593 63.6596 148.737L63.278 147.91ZM68.7477 145.213H73.8486V145.938H68.188L68.7477 145.213ZM73.6069 145.213H73.7596L73.9122 145.175L74.561 145.366C74.3829 145.697 74.1794 146.027 73.9504 146.358C73.7299 146.689 73.5052 146.964 73.2762 147.185L72.513 146.918C72.708 146.714 72.9073 146.472 73.1108 146.193C73.3144 145.904 73.4797 145.624 73.6069 145.353V145.213ZM70.3251 145.48H71.2028C71.1265 145.93 71.012 146.333 70.8593 146.689C70.7152 147.036 70.5032 147.346 70.2233 147.617C69.9519 147.889 69.5958 148.122 69.1548 148.317C68.7138 148.504 68.1711 148.66 67.5266 148.788C67.4842 148.686 67.4163 148.567 67.3231 148.431C67.2298 148.296 67.145 148.185 67.0686 148.101C67.6538 148.007 68.1414 147.884 68.5315 147.732C68.9301 147.579 69.2481 147.401 69.4855 147.198C69.7315 146.986 69.918 146.74 70.0452 146.46C70.1809 146.171 70.2742 145.845 70.3251 145.48ZM71.1646 145.697C71.224 145.968 71.3173 146.235 71.4445 146.498C71.5802 146.752 71.7794 146.994 72.0423 147.223C72.3052 147.452 72.6614 147.651 73.1108 147.821C73.5688 147.99 74.1539 148.126 74.8663 148.228C74.7815 148.321 74.6882 148.448 74.5864 148.61C74.4847 148.762 74.4126 148.898 74.3702 149.017C73.6154 148.881 72.9964 148.703 72.513 148.482C72.0296 148.253 71.648 147.995 71.3681 147.706C71.0883 147.41 70.8721 147.1 70.7194 146.778C70.5752 146.447 70.4608 146.116 70.376 145.786L71.1646 145.697ZM68.9513 144.285L69.8035 144.412C69.5915 144.878 69.3159 145.34 68.9767 145.798C68.646 146.248 68.2347 146.663 67.7428 147.045C67.658 146.96 67.5435 146.871 67.3994 146.778C67.2637 146.684 67.1365 146.617 67.0178 146.574C67.4927 146.244 67.8912 145.875 68.2135 145.468C68.5357 145.052 68.7817 144.658 68.9513 144.285ZM65.9238 150.925V151.802H72.3349V150.925H65.9238ZM65.9238 152.413V153.303H72.3349V152.413H65.9238ZM65.9238 149.449V150.301H72.3349V149.449H65.9238ZM64.9952 148.8H73.2889V153.939H64.9952V148.8ZM70.1215 154.601L70.8975 154.117C71.3639 154.262 71.8346 154.414 72.3095 154.575C72.7844 154.737 73.2338 154.898 73.6578 155.059C74.0818 155.228 74.4465 155.385 74.7518 155.529L73.6833 156.013C73.4204 155.877 73.0981 155.729 72.7165 155.568C72.3349 155.406 71.9236 155.241 71.4826 155.071C71.0417 154.91 70.588 154.753 70.1215 154.601ZM67.1195 154.079L67.9972 154.474C67.6495 154.677 67.251 154.876 66.8015 155.071C66.3605 155.267 65.9026 155.445 65.4277 155.606C64.9528 155.767 64.5034 155.907 64.0793 156.026C64.0285 155.958 63.9606 155.877 63.8758 155.784C63.791 155.699 63.702 155.61 63.6087 155.517C63.5239 155.432 63.4433 155.364 63.367 155.313C63.808 155.22 64.2574 155.11 64.7154 154.982C65.1818 154.855 65.6228 154.715 66.0383 154.563C66.4538 154.41 66.8142 154.249 67.1195 154.079ZM78.0591 144.323H78.9495V155.975H78.0591V144.323ZM76.0111 148.559H81.0357V149.449H76.0111V148.559ZM77.9319 149.029L78.5043 149.271C78.3941 149.712 78.2541 150.17 78.0845 150.645C77.9234 151.111 77.7453 151.573 77.5503 152.031C77.3552 152.489 77.1517 152.922 76.9397 153.329C76.7277 153.727 76.5157 154.071 76.3037 154.359C76.2698 154.266 76.2231 154.164 76.1638 154.054C76.1129 153.944 76.0535 153.833 75.9857 153.723C75.9263 153.604 75.8669 153.507 75.8076 153.431C76.0789 153.1 76.3503 152.684 76.6217 152.184C76.9015 151.684 77.1559 151.158 77.3849 150.607C77.6139 150.047 77.7962 149.521 77.9319 149.029ZM78.9368 149.614C79.0046 149.691 79.1022 149.814 79.2294 149.983C79.3651 150.153 79.5135 150.344 79.6746 150.556C79.8442 150.768 80.0096 150.98 80.1707 151.192C80.3318 151.404 80.476 151.599 80.6032 151.777C80.7304 151.947 80.8194 152.074 80.8703 152.159L80.2343 152.909C80.158 152.739 80.0435 152.523 79.8908 152.26C79.7382 151.989 79.5686 151.709 79.382 151.421C79.2039 151.124 79.0301 150.848 78.8605 150.594C78.6994 150.339 78.5679 150.144 78.4661 150.009L78.9368 149.614ZM76.1001 145.277L76.7998 145.086C76.927 145.383 77.0372 145.701 77.1305 146.04C77.2323 146.379 77.3213 146.71 77.3976 147.032C77.474 147.354 77.5248 147.647 77.5503 147.91L76.7871 148.101C76.7786 147.846 76.7362 147.558 76.6598 147.236C76.592 146.905 76.5072 146.57 76.4054 146.231C76.3122 145.883 76.2104 145.565 76.1001 145.277ZM80.2088 145.048L81.0484 145.264C80.9466 145.578 80.8321 145.913 80.7049 146.269C80.5862 146.617 80.4633 146.956 80.3361 147.287C80.2173 147.609 80.1028 147.893 79.9926 148.139L79.3693 147.935C79.4711 147.681 79.5728 147.384 79.6746 147.045C79.7848 146.697 79.8866 146.35 79.9799 146.002C80.0816 145.646 80.158 145.328 80.2088 145.048ZM85.1444 144.285H86.0602V155.975H85.1444V144.285ZM81.0102 152.387L87.5485 151.204L87.7012 152.082L81.1756 153.265L81.0102 152.387ZM81.977 145.849L82.4604 145.188C82.7063 145.332 82.9565 145.497 83.2109 145.684C83.4738 145.862 83.7197 146.044 83.9487 146.231C84.1776 146.417 84.3599 146.591 84.4956 146.752L83.9868 147.477C83.8596 147.316 83.6815 147.138 83.4526 146.943C83.2321 146.748 82.9904 146.553 82.7275 146.358C82.4731 146.163 82.2229 145.993 81.977 145.849ZM81.3282 149.055L81.7735 148.381C82.0279 148.508 82.2908 148.656 82.5621 148.826C82.8335 148.987 83.0921 149.156 83.3381 149.335C83.584 149.504 83.779 149.665 83.9232 149.818L83.4526 150.581C83.2999 150.429 83.1049 150.263 82.8674 150.085C82.63 149.899 82.3756 149.716 82.1042 149.538C81.8413 149.352 81.5827 149.19 81.3282 149.055Z" fill="#1F2633"/>
<circle cx="19.0801" cy="61.1036" r="5.67876" fill="#FF8001"/>
<circle cx="19.0801" cy="82.4561" r="5.67876" fill="#FF0000"/>
<circle cx="19.0801" cy="104.717" r="5.67876" fill="#4F009A"/>
<circle cx="19.0801" cy="126.978" r="5.67876" fill="#4F0000"/>
<circle cx="19.0811" cy="150.601" r="5.67876" fill="#9B9B9B"/>
<circle cx="19.0801" cy="18.3995" r="5.67876" fill="#008001"/>
<circle cx="19.0801" cy="39.752" r="5.67876" fill="#FFD500"/>
</svg>
